<?xml version="1.0" standalone="no"?>
<!DOCTYPE svg PUBLIC "-//W3C//DTD SVG 20010904//EN"
 "http://www.w3.org/TR/2001/REC-SVG-20010904/DTD/svg10.dtd">
<svg version="1.0" xmlns="http://www.w3.org/2000/svg"
 width="50.000000pt" height="50.000000pt" viewBox="0 0 50.000000 50.000000"
 preserveAspectRatio="xMidYMid meet">
<metadata>
Created by potrace 1.16, written by Peter Selinger 2001-2019
</metadata>
<g transform="translate(0.000000,50.000000) scale(0.005010,-0.005005)"
fill="#F86200" stroke="none">
<path d="M2924 9975 c11 -8 25 -15 31 -15 6 0 22 -12 36 -26 13 -14 36 -34 50
-45 25 -18 27 -18 80 4 75 31 79 34 79 68 l0 29 -147 0 c-132 -1 -146 -2 -129
-15z"/>
<path d="M3594 9974 c3 -9 6 -20 6 -24 0 -5 14 -25 31 -45 26 -30 37 -35 74
-35 49 0 54 9 47 78 l-4 42 -80 0 c-69 0 -79 -2 -74 -16z"/>
<path d="M5315 9958 c6 -28 88 -203 101 -217 3 -3 29 19 59 49 l54 53 -35 42
c-23 28 -34 52 -34 74 l0 31 -76 0 -76 0 7 -32z"/>
<path d="M6100 9963 c0 -39 42 -123 76 -154 39 -35 76 -59 91 -59 14 0 83 66
83 79 0 4 -20 29 -45 54 -33 35 -45 55 -45 77 l0 30 -80 0 -80 0 0 -27z"/>
<path d="M6708 9943 c-8 -87 31 -141 92 -128 31 7 160 138 160 162 0 10 -29
13 -124 13 l-124 0 -4 -47z"/>
<path d="M8370 9964 c0 -14 -9 -37 -20 -51 -11 -14 -20 -35 -20 -46 0 -34 39
-103 82 -147 l41 -41 43 42 42 41 -44 82 c-26 47 -44 94 -44 114 0 31 -2 32
-40 32 -36 0 -40 -2 -40 -26z"/>
<path d="M9170 9962 c0 -46 -22 -146 -34 -154 -6 -4 -33 -8 -61 -8 -46 0 -51
3 -65 32 -24 51 -42 56 -88 26 -45 -31 -54 -51 -38 -98 13 -40 54 -56 100 -40
16 6 58 10 93 10 l64 0 90 83 c92 83 119 119 119 157 0 19 -6 20 -90 20 l-90
0 0 -28z"/>
<path d="M1674 9912 c-19 -12 -64 -84 -64 -102 0 -23 47 -66 95 -86 22 -9 59
-30 82 -47 42 -30 42 -30 70 -12 32 21 52 45 53 62 0 22 -51 72 -133 130 -97
69 -89 64 -103 55z"/>
<path d="M4286 9895 c-3 -8 -25 -24 -49 -34 -39 -17 -48 -28 -84 -99 -39 -78
-39 -82 -25 -112 22 -46 53 -54 112 -29 56 24 87 54 99 95 15 55 -35 226 -53
179z"/>
<path d="M7864 9859 c-24 -25 -35 -29 -84 -29 -31 0 -61 5 -66 10 -17 17 -38
3 -67 -46 l-28 -46 50 36 c45 33 56 37 103 34 46 -3 55 -7 65 -29 24 -49 39
-54 81 -27 20 14 43 37 51 52 13 23 13 28 0 41 -8 9 -29 19 -46 24 -27 8 -35
5 -59 -20z"/>
<path d="M1072 9834 c-12 -8 -33 -35 -47 -59 -29 -48 -28 -84 5 -160 26 -60
50 -78 96 -69 59 11 104 75 104 151 0 27 -68 112 -107 135 -27 15 -32 16 -51
2z"/>
<path d="M4888 9845 c-2 -3 -33 -12 -69 -21 -121 -30 -131 -53 -76 -164 31
-63 34 -66 92 -86 86 -31 167 -39 204 -20 30 16 71 72 71 97 0 27 -49 87 -97
120 -84 56 -121 78 -125 74z"/>
<path d="M457 9704 c-42 -36 -79 -74 -82 -85 -12 -35 30 -91 91 -122 28 -14
35 -14 99 8 38 12 75 31 82 41 7 10 13 39 13 66 0 41 -5 54 -34 85 -19 21 -47
46 -64 55 l-29 17 -76 -65z"/>
<path d="M3375 9707 c-79 -31 -104 -61 -86 -106 12 -27 25 -38 99 -77 l43 -23
72 25 c83 30 93 38 102 81 6 30 5 32 -50 52 -31 12 -59 21 -63 21 -4 0 -18 9
-32 20 -28 22 -43 23 -85 7z"/>
<path d="M2209 9643 c-1 -61 -26 -105 -69 -119 -30 -10 -31 -11 -10 -17 27 -7
116 25 140 50 9 10 21 37 27 60 9 36 8 44 -6 58 -10 8 -32 15 -49 15 -31 0
-32 -1 -33 -47z"/>
<path d="M5790 9654 c-35 -18 -74 -43 -86 -55 l-24 -22 33 -61 c41 -78 96
-136 128 -136 46 0 85 48 117 142 16 47 26 90 23 95 -3 5 -33 23 -67 40 l-60
31 -64 -34z"/>
<path d="M7034 9646 c-85 -40 -134 -112 -111 -164 15 -32 48 -37 95 -13 40 20
132 116 132 137 0 10 -33 45 -56 57 -6 3 -33 -5 -60 -17z"/>
<path d="M9623 9627 c-13 -18 -34 -56 -48 -85 -29 -61 -26 -73 35 -134 l37
-38 66 50 c101 77 107 102 37 162 -47 40 -97 78 -102 78 -1 -1 -13 -15 -25
-33z"/>
<path d="M2648 9600 l-33 -29 33 -1 32 0 0 -53 c0 -37 -8 -69 -25 -103 -14
-27 -25 -50 -25 -51 0 -2 17 -3 39 -3 30 0 40 4 44 20 3 11 13 20 24 20 10 0
24 9 31 20 7 11 19 20 27 20 8 0 24 19 36 41 25 50 16 83 -26 93 -15 4 -44 18
-64 32 -46 31 -54 30 -93 -6z"/>
<path d="M6490 9556 c-56 -15 -118 -54 -153 -96 -33 -39 -34 -51 -3 -87 24
-28 25 -28 141 -26 156 2 186 22 199 131 l7 53 -43 19 c-49 22 -84 24 -148 6z"/>
<path d="M7995 9526 c-27 -13 -58 -32 -68 -43 -15 -17 -16 -22 -3 -32 33 -28
82 -25 138 8 29 17 62 38 72 46 20 15 20 15 0 30 -28 21 -82 18 -139 -9z"/>
<path d="M9029 9491 c-21 -17 -22 -21 -9 -34 8 -8 35 -22 60 -31 25 -10 53
-25 63 -34 17 -15 20 -15 38 8 25 34 24 47 -10 81 -24 23 -38 29 -74 29 -29 0
-53 -7 -68 -19z"/>
<path d="M7414 9458 c-17 -18 -52 -63 -77 -100 -26 -37 -61 -76 -77 -88 -23
-16 -30 -29 -30 -54 0 -45 18 -65 79 -86 l53 -18 77 35 c85 39 133 72 157 109
17 25 22 103 10 141 -8 26 -111 93 -141 93 -12 0 -35 -15 -51 -32z"/>
<path d="M1532 9405 c-46 -31 -121 -113 -128 -139 -2 -11 -1 -39 3 -61 8 -36
15 -43 68 -72 33 -18 67 -30 75 -27 23 9 127 24 208 31 l72 5 0 44 c0 47 -30
122 -59 148 -10 9 -60 33 -112 54 l-95 39 -32 -22z"/>
<path d="M4450 9394 c-8 -3 -52 -24 -98 -47 l-83 -42 5 -40 c4 -32 14 -48 48
-77 46 -41 112 -68 163 -68 35 0 116 39 153 73 48 45 13 135 -68 174 -49 24
-97 34 -120 27z"/>
<path d="M8543 9390 c-12 -5 -27 -18 -33 -29 -9 -18 -20 -21 -70 -21 -32 0
-61 4 -65 9 -6 10 -96 -41 -116 -66 -14 -16 23 -91 82 -166 21 -27 41 -64 45
-83 7 -37 18 -42 45 -19 10 10 50 20 100 25 156 17 176 30 205 127 27 91 -11
161 -113 212 -47 23 -49 24 -80 11z"/>
<path d="M3763 9366 c-34 -16 -57 -35 -68 -56 l-16 -31 54 -52 c30 -28 61 -65
70 -82 11 -21 27 -34 57 -43 41 -12 43 -12 71 15 16 16 29 39 29 53 0 70 -46
158 -105 199 -17 11 -33 21 -36 21 -2 0 -27 -11 -56 -24z"/>
<path d="M5380 9351 c-40 -12 -105 -48 -119 -65 -11 -13 -11 -22 -1 -46 11
-26 18 -30 50 -30 41 0 54 -11 64 -53 8 -32 70 -65 138 -74 l38 -6 0 39 c0 22
3 56 6 76 6 35 5 37 -30 52 -27 11 -36 21 -36 39 0 29 -42 77 -67 76 -10 0
-29 -4 -43 -8z"/>
<path d="M9330 9321 c-19 -11 -46 -31 -59 -46 -21 -25 -22 -30 -10 -52 20 -37
95 -100 135 -113 29 -10 41 -9 77 9 23 12 53 30 66 40 l25 19 -30 33 c-52 60
-134 129 -152 129 -9 -1 -33 -9 -52 -19z"/>
<path d="M222 9308 c-49 -54 -47 -102 8 -188 46 -72 64 -85 97 -71 28 12 67
43 91 73 11 14 10 23 -7 57 -18 35 -50 64 -150 139 -15 10 -21 8 -39 -10z"/>
<path d="M865 9296 c-38 -18 -80 -45 -93 -59 -22 -23 -23 -27 -8 -54 15 -31
78 -92 118 -115 17 -10 50 -12 133 -8 l110 5 3 62 c3 56 1 64 -25 88 -33 32
-152 115 -163 115 -3 -1 -36 -16 -75 -34z"/>
<path d="M1985 9273 c-10 -14 -20 -44 -22 -67 -9 -68 -17 -76 -76 -76 l-52 0
86 -87 c48 -49 94 -99 103 -113 16 -24 16 -24 16 28 l0 52 53 26 c111 56 124
95 53 167 -24 25 -66 57 -94 71 l-50 25 -17 -26z"/>
<path d="M8050 9201 c0 -11 -12 -23 -29 -31 -17 -6 -49 -29 -72 -51 -39 -36
-41 -41 -35 -80 4 -22 15 -58 26 -80 11 -21 20 -51 20 -66 0 -66 7 -72 68 -66
81 7 107 19 157 76 l44 50 -19 49 c-10 27 -35 67 -55 89 -20 22 -45 60 -55 85
-20 45 -50 60 -50 25z"/>
<path d="M6008 9159 c-21 -17 -38 -39 -38 -48 0 -21 103 -136 144 -162 28 -17
30 -17 67 2 21 10 45 32 53 47 13 26 39 132 34 137 -2 2 -21 14 -42 29 -33 22
-49 26 -110 26 -64 -1 -75 -4 -108 -31z"/>
<path d="M6742 9130 c-69 -49 -130 -113 -137 -143 -10 -38 22 -71 102 -108 78
-36 93 -36 170 0 66 32 66 32 78 124 9 64 -10 91 -88 128 -34 16 -67 29 -73
29 -6 0 -29 -13 -52 -30z"/>
<path d="M3296 9107 c-22 -12 -42 -29 -46 -37 -4 -8 -15 -31 -24 -50 -9 -19
-23 -46 -30 -60 -8 -14 -17 -41 -20 -61 -6 -35 -5 -37 26 -42 18 -2 47 -10 64
-18 28 -11 38 -10 90 12 53 23 62 31 84 78 43 87 22 138 -77 190 -27 14 -21
15 -67 -12z"/>
<path d="M4941 8985 c-102 -48 -155 -107 -145 -165 10 -64 35 -128 64 -169 32
-44 62 -56 170 -71 83 -11 120 4 139 58 8 21 37 60 69 90 l57 53 -24 44 c-23
44 -130 140 -189 171 -39 20 -80 17 -141 -11z"/>
<path d="M7597 8935 c-21 -7 -41 -15 -43 -18 -8 -7 17 -98 37 -139 21 -41 42
-50 79 -33 14 7 42 15 63 19 21 4 40 13 43 21 7 18 -26 92 -60 133 -31 36 -57
40 -119 17z"/>
<path d="M1638 8914 c-16 -8 -28 -19 -28 -25 0 -28 77 -169 100 -183 38 -22
172 -58 163 -43 -27 47 -99 129 -128 147 -44 27 -65 57 -65 92 0 32 -4 33 -42
12z"/>
<path d="M9779 8905 c-44 -24 -50 -52 -28 -150 22 -103 42 -135 94 -155 40
-15 54 -12 67 15 8 18 19 25 40 25 l28 0 0 85 0 85 -29 0 c-25 0 -29 4 -35 39
-3 22 -13 47 -22 55 -19 20 -80 20 -115 1z"/>
<path d="M9144 8868 c-56 -60 -67 -84 -60 -123 14 -75 60 -101 228 -131 95
-17 98 -17 119 2 30 26 79 116 72 128 -4 6 -9 26 -13 46 -5 31 -9 35 -45 42
-22 4 -88 10 -147 14 l-107 7 -3 30 -3 30 -41 -45z"/>
<path d="M4295 8804 c-72 -43 -95 -63 -95 -81 0 -21 80 -103 122 -124 47 -24
63 -24 132 2 84 33 90 44 58 104 -26 47 -120 135 -145 135 -7 0 -39 -16 -72
-36z"/>
<path d="M5725 8830 c-46 -18 -49 -33 -32 -135 20 -120 41 -156 113 -191 48
-23 62 -26 115 -20 34 3 80 14 104 25 44 20 52 34 79 153 10 46 -42 79 -239
149 -84 30 -107 33 -140 19z"/>
<path d="M842 8788 c-12 -6 -32 -27 -44 -46 -19 -31 -20 -35 -5 -44 24 -13 23
-102 -2 -133 -15 -20 -17 -32 -10 -77 14 -90 18 -99 52 -113 53 -22 115 -3
167 49 l42 44 -28 18 c-66 41 -74 54 -74 116 0 33 5 68 11 79 8 15 5 27 -11
54 -20 32 -57 66 -70 64 -3 0 -15 -5 -28 -11z"/>
<path d="M229 8738 c-62 -65 -72 -118 -41 -201 25 -64 44 -81 132 -111 l74
-25 24 22 c67 61 62 138 -14 220 -57 61 -78 79 -121 101 -31 15 -33 15 -54 -6z"/>
<path d="M2370 8740 c-41 -10 -105 -21 -143 -25 l-67 -7 20 -25 c11 -14 20
-32 20 -39 0 -10 14 -14 46 -14 69 0 113 -30 114 -77 0 -28 33 -31 57 -7 12
12 31 15 74 12 l58 -3 6 50 c3 28 8 67 11 88 5 31 3 37 -13 37 -10 0 -27 7
-37 15 -25 19 -53 18 -146 -5z"/>
<path d="M7220 8735 c-9 -11 -11 -44 -5 -128 8 -141 8 -142 -104 -134 l-79 5
14 -52 c8 -28 14 -66 14 -83 0 -18 5 -33 11 -33 14 0 39 25 39 39 0 14 161 14
215 0 57 -14 124 -50 141 -73 18 -26 19 -157 2 -174 -7 -7 -22 -12 -35 -12
-37 0 -72 -21 -93 -57 -19 -33 -21 -34 -77 -31 l-58 3 -16 50 -16 50 -48 3
c-27 2 -58 10 -69 18 -37 25 -66 15 -176 -61 -60 -41 -111 -75 -115 -75 -7 0
-127 -79 -169 -111 -28 -22 -28 -23 -21 -98 7 -80 24 -133 46 -147 8 -5 66
-11 131 -14 161 -7 173 -20 184 -205 5 -93 0 -113 -72 -272 -6 -13 76 -33 136
-33 73 0 91 -40 74 -164 l-7 -46 -53 0 -54 0 0 35 0 35 -87 0 c-49 0 -104 4
-124 9 -26 6 -50 4 -84 -8 l-47 -16 1 -80 c1 -44 5 -106 8 -138 4 -52 2 -62
-19 -84 -12 -14 -40 -33 -60 -44 l-37 -19 28 -62 c26 -60 30 -63 67 -68 43 -6
156 24 236 63 l48 22 0 90 c0 73 5 98 23 135 30 59 60 69 211 69 l119 1 -6
-117 c-4 -65 -10 -137 -13 -161 l-7 -43 83 3 c62 2 85 7 90 18 36 78 32 75 93
78 54 3 57 2 63 -24 4 -14 4 -55 1 -91 l-6 -65 40 6 c23 4 53 14 68 22 14 8
44 26 66 39 22 13 56 24 75 24 19 1 58 13 87 29 42 21 55 35 64 62 12 36 40
69 76 89 33 17 115 14 143 -6 13 -10 42 -27 64 -38 27 -13 43 -29 46 -45 4
-16 14 -26 28 -28 19 -3 22 1 22 31 l0 35 58 6 c31 3 84 9 117 14 l60 7 7 79
c4 44 14 98 23 119 l16 39 -43 40 c-24 22 -60 48 -80 59 -21 10 -42 28 -48 38
-15 29 -12 115 6 178 9 30 14 56 12 57 -1 1 -19 7 -38 12 -41 12 -60 42 -60
102 0 23 -4 42 -10 42 -5 0 -10 -6 -10 -13 0 -8 -8 -21 -18 -30 -23 -21 -118
-23 -141 -3 -14 12 -29 10 -111 -12 -87 -23 -113 -26 -299 -26 l-203 -1 6 -45
c15 -105 18 -207 7 -228 -13 -25 -66 -41 -136 -43 -27 -1 -60 -4 -72 -7 -20
-6 -21 -9 -10 -32 11 -22 20 -25 72 -27 33 -2 75 -5 93 -9 l33 -5 -3 -57 c-3
-54 -5 -57 -43 -80 -35 -20 -50 -22 -120 -19 -114 6 -131 16 -155 95 -24 79
-28 226 -6 258 8 11 38 26 66 34 69 19 80 37 80 132 0 42 5 89 12 103 10 22
17 25 65 25 47 0 53 2 53 20 0 23 16 31 103 55 43 12 69 27 104 61 55 55 77
64 152 64 l59 0 6 -54 c10 -75 22 -89 66 -76 19 5 66 10 105 10 l70 1 27 39
c27 39 29 40 86 40 32 0 63 -5 70 -12 7 -7 12 -32 12 -57 l0 -45 28 26 c51 49
130 62 210 34 l41 -15 21 70 c23 78 20 100 -19 142 -24 26 -26 37 -29 120 -2
77 0 98 17 127 57 100 64 124 71 235 4 61 10 117 14 126 5 11 2 19 -8 22 -9 4
-16 11 -16 18 0 6 -14 29 -31 50 -28 36 -35 39 -80 39 -43 0 -49 3 -49 20 0
12 -22 43 -48 69 l-48 48 -64 -13 c-36 -7 -67 -20 -72 -28 -7 -12 -25 -16 -64
-16 -51 0 -56 2 -72 31 -36 66 -46 73 -78 60 -16 -7 -74 -32 -129 -55 -113
-47 -105 -30 -88 -176 l8 -75 56 -3 c41 -2 62 -8 74 -22 15 -17 31 -20 95 -20
66 0 80 3 96 21 18 20 26 21 130 16 78 -4 127 -2 170 8 32 8 89 14 127 15 l67
0 0 -60 c0 -81 -32 -165 -70 -185 -35 -18 -162 -20 -193 -3 -12 6 -63 12 -113
12 -73 1 -96 5 -111 19 -17 15 -42 18 -162 20 l-141 2 0 -30 c0 -52 21 -108
56 -149 31 -36 34 -45 34 -104 0 -80 -11 -92 -84 -92 -43 0 -56 3 -56 15 0 12
-13 15 -60 15 -48 0 -61 4 -70 19 -16 30 -12 109 7 137 15 24 15 25 -5 31 -13
3 -22 13 -22 24 0 11 -4 19 -10 19 -5 0 -10 6 -10 14 0 20 -23 26 -96 26 l-64
0 0 60 0 60 48 0 c86 0 112 43 77 130 -7 19 -20 53 -28 74 l-14 39 -91 -2
c-107 -3 -112 2 -112 99 0 57 -2 63 -42 106 -63 68 -113 90 -138 59z m450
-830 l0 -65 -60 -17 c-40 -12 -60 -23 -60 -34 0 -18 -35 -52 -65 -64 -29 -11
-183 -34 -232 -35 -23 0 -54 5 -68 12 -25 11 -26 15 -23 82 l3 71 100 12 c178
21 208 30 233 69 22 34 23 34 97 34 l75 0 0 -65z m538 -17 c18 -22 42 -133 42
-192 l0 -56 -53 0 c-64 0 -79 13 -107 93 -19 55 -27 147 -13 160 12 12 120 8
131 -5z m125 -612 c35 -44 39 -129 8 -146 -22 -11 -83 -13 -130 -4 l-31 7 0
76 c0 47 5 82 12 89 7 7 35 12 63 12 45 0 53 -3 78 -34z m-355 -302 c-5 -75
-15 -88 -77 -98 -21 -3 -54 -17 -75 -31 -40 -27 -69 -30 -188 -18 l-68 6 0 53
c0 50 2 54 24 54 15 0 33 11 46 27 33 42 135 72 249 72 l93 1 -4 -66z m-284
-190 c3 -9 6 -49 6 -90 l0 -74 -58 0 c-32 0 -63 5 -70 12 -7 7 -12 43 -12 90
l0 78 64 0 c49 0 65 -4 70 -16z"/>
<path d="M6432 8700 c-28 -27 -36 -60 -28 -125 8 -71 12 -80 44 -96 15 -7 66
-37 114 -67 104 -65 163 -77 197 -43 11 11 21 29 21 40 0 30 -21 84 -46 118
-27 36 -241 192 -265 193 -8 0 -25 -9 -37 -20z"/>
<path d="M3865 8651 c-43 -19 -61 -47 -71 -111 -6 -36 -3 -42 40 -88 52 -56
136 -105 143 -84 3 6 18 12 34 12 29 0 29 1 29 59 0 52 -5 66 -39 117 -22 33
-52 71 -68 86 l-28 27 -40 -18z"/>
<path d="M2864 8618 c-12 -18 -24 -51 -27 -72 -4 -22 -11 -44 -16 -49 -5 -5
-39 -12 -75 -14 -37 -3 -69 -10 -72 -14 -3 -5 -27 -9 -55 -9 -36 0 -49 -4 -49
-14 0 -32 -30 -46 -96 -46 -51 0 -64 -3 -64 -16 0 -32 18 -52 45 -47 14 3 25
9 25 14 0 5 24 9 53 9 41 0 55 -4 65 -20 9 -15 23 -20 57 -20 38 0 45 3 45 20
0 18 7 20 55 20 48 0 55 -2 55 -20 0 -16 7 -20 34 -20 23 0 44 -8 60 -24 23
-20 26 -31 26 -88 l0 -64 -72 -17 c-40 -10 -93 -17 -117 -17 -37 0 -42 -2 -36
-17 4 -10 27 -72 51 -137 24 -65 54 -135 67 -155 13 -20 27 -60 31 -91 4 -30
11 -72 17 -93 10 -36 10 -37 37 -23 15 7 59 23 97 36 39 12 81 29 95 38 30 19
149 26 245 15 l70 -8 3 -69 c2 -39 -2 -74 -8 -80 -5 -5 -10 -24 -10 -42 0 -59
-6 -64 -79 -64 -38 1 -76 7 -91 15 -14 8 -31 14 -37 15 -22 0 -14 -31 12 -56
14 -13 25 -26 25 -29 0 -10 66 -75 77 -75 5 0 20 11 33 25 21 22 32 25 91 25
76 0 79 -3 79 -97 0 -45 -3 -54 -27 -71 -50 -34 -119 -69 -151 -77 -37 -8 -52
-30 -52 -74 0 -26 4 -31 25 -31 13 0 46 -9 73 -19 l49 -20 7 72 c5 54 11 76
26 89 11 9 20 21 20 27 0 30 171 76 255 69 l48 -3 -6 92 c-6 100 -20 134 -74
184 -53 49 -158 111 -196 117 -47 6 -53 18 -66 147 -5 53 -16 104 -23 112 -21
26 -131 103 -146 103 -7 0 -37 -13 -67 -30 -76 -42 -187 -42 -198 1 -3 10 -12
19 -21 19 -13 0 -16 11 -16 50 0 27 5 61 12 75 10 23 17 25 72 25 70 0 81 5
95 42 8 20 18 27 43 30 27 2 34 8 42 37 9 31 7 36 -20 57 -35 29 -107 54 -194
69 -58 9 -65 13 -68 35 -2 14 -10 39 -18 57 -8 18 -14 62 -14 106 0 56 -4 80
-17 96 l-18 21 -21 -32z"/>
<path d="M1368 8619 c-15 -8 -18 -24 -18 -93 0 -91 5 -101 64 -135 35 -20 47
-21 118 -15 l78 7 0 38 c0 35 -4 42 -42 65 -24 15 -73 53 -109 86 -73 64 -67
61 -91 47z"/>
<path d="M4585 8451 c-22 -10 -56 -35 -75 -55 l-34 -36 14 -42 c16 -46 77 -97
116 -98 25 0 83 61 85 88 3 53 -5 91 -28 125 -14 20 -28 37 -32 37 -3 0 -24
-9 -46 -19z"/>
<path d="M9148 8454 c-26 -8 -22 -24 13 -67 42 -51 70 -61 117 -42 75 32 85
62 31 90 -30 16 -132 27 -161 19z"/>
<path d="M5388 8330 c-66 -59 -91 -112 -86 -185 l3 -49 50 -17 c28 -9 69 -20
93 -24 l42 -7 0 51 c0 39 4 54 19 63 17 10 18 15 7 37 -7 14 -16 46 -20 69 -8
52 -31 112 -43 112 -5 0 -34 -23 -65 -50z"/>
<path d="M4932 8273 c-22 -42 -23 -97 -2 -131 22 -35 50 -50 114 -58 32 -5 45
-2 58 13 16 18 16 21 -7 68 -15 32 -40 62 -67 81 -58 43 -84 50 -96 27z"/>
<path d="M3561 8253 c-22 -27 -22 -35 5 -110 16 -43 29 -52 111 -68 27 -5 39
-1 73 26 22 18 40 41 40 51 0 24 -64 84 -115 109 -57 26 -89 24 -114 -8z"/>
<path d="M6202 8226 c-67 -49 -85 -74 -105 -143 -22 -72 -12 -81 86 -85 l78
-3 11 38 12 39 55 -4 c31 -2 63 -8 72 -12 19 -8 89 47 89 71 0 42 -30 70 -102
97 -133 50 -131 50 -196 2z"/>
<path d="M9524 8221 c-21 -16 -56 -47 -77 -69 l-39 -40 32 -85 c31 -82 34 -86
81 -108 43 -20 52 -21 76 -9 16 7 54 21 86 31 58 17 152 73 161 95 2 6 7 32
11 56 l7 45 -49 17 c-26 10 -66 22 -88 28 -22 5 -66 23 -97 39 -31 16 -58 29
-61 29 -2 0 -22 -13 -43 -29z"/>
<path d="M1477 8232 c-52 -3 -59 -6 -68 -30 -12 -31 -14 -80 -4 -111 5 -18 14
-21 66 -21 l61 0 -1 -77 c-1 -43 2 -104 5 -136 4 -44 2 -64 -10 -82 -9 -13
-16 -44 -16 -67 0 -57 64 -239 90 -257 17 -11 20 -24 20 -80 0 -59 -4 -73 -35
-121 -27 -43 -35 -65 -35 -102 0 -26 -9 -71 -21 -100 -23 -58 -20 -95 10 -144
l19 -31 128 -6 c122 -6 206 -23 244 -50 12 -9 13 -9 3 3 -7 8 -13 33 -13 57 0
51 -22 77 -77 92 -70 19 -83 35 -83 102 0 69 8 80 66 97 60 17 123 15 195 -8
89 -29 177 -29 222 -1 24 15 51 21 89 21 l55 0 32 51 c33 54 40 105 20 156 -6
15 -16 55 -23 88 -11 54 -15 60 -39 63 -25 3 -27 0 -27 -32 0 -33 -3 -36 -37
-42 -48 -9 -231 13 -259 31 -22 14 -34 53 -34 112 0 31 -4 35 -47 54 -68 29
-170 109 -185 144 -6 17 -19 37 -28 45 -9 8 -22 25 -28 37 -26 48 -5 187 29
196 10 3 19 12 19 20 0 9 9 32 21 51 l21 36 -41 0 c-28 0 -48 7 -61 20 -17 17
-35 21 -103 23 -45 1 -108 1 -140 -1z m455 -777 c53 -8 58 -16 58 -109 0 -48
-4 -64 -22 -83 -12 -13 -27 -23 -35 -23 -7 0 -13 -11 -13 -25 0 -24 -2 -25
-63 -25 -62 0 -64 1 -93 40 -19 26 -43 44 -69 52 l-40 13 -3 68 c-3 78 5 94
51 100 38 5 164 1 229 -8z"/>
<path d="M4268 8177 c-29 -23 -34 -47 -26 -114 13 -107 61 -184 130 -205 l38
-11 0 -66 c0 -63 2 -68 29 -84 36 -21 60 -22 89 -1 36 25 55 72 53 133 -1 76
-18 90 -120 104 l-81 11 0 57 c0 48 3 57 20 62 28 7 25 21 -12 49 -18 13 -49
36 -69 51 -29 22 -38 25 -51 14z"/>
<path d="M676 8129 c-31 -24 -32 -47 -7 -120 30 -87 41 -104 75 -123 30 -16
33 -16 79 4 27 12 51 28 54 36 10 27 -132 224 -162 224 -7 0 -24 -9 -39 -21z"/>
<path d="M220 8094 c-28 -15 -56 -42 -72 -68 l-26 -43 20 -44 c10 -24 37 -67
59 -96 32 -43 45 -53 70 -53 50 0 95 26 133 76 32 42 36 54 31 84 -11 62 -35
126 -56 148 -28 31 -100 29 -159 -4z"/>
<path d="M9024 8025 c-18 -7 -35 -18 -38 -24 -13 -21 47 -115 86 -136 42 -22
42 -22 62 27 15 35 14 37 -15 82 -40 59 -56 68 -95 51z"/>
<path d="M2440 8020 c-30 -5 -96 -8 -146 -9 l-92 -1 -10 -62 c-28 -160 -27
-164 36 -230 l36 -38 93 0 c77 0 96 -3 112 -19 10 -10 39 -21 65 -25 42 -7 46
-10 46 -35 0 -16 9 -39 20 -53 27 -35 56 -114 65 -175 5 -39 13 -56 31 -68 14
-9 24 -25 24 -39 0 -17 7 -26 23 -30 35 -8 156 -100 202 -152 l40 -46 36 64
35 64 -41 90 c-39 83 -47 93 -116 144 -71 53 -76 55 -149 60 l-75 5 -6 85 c-3
55 -16 119 -37 180 -17 52 -40 131 -52 175 -21 76 -51 127 -74 124 -6 -1 -36
-5 -66 -9z"/>
<path d="M3847 7859 c-41 -33 -46 -58 -23 -112 17 -41 109 -127 136 -127 52 0
150 79 150 122 0 32 -61 100 -113 124 -70 32 -104 31 -150 -7z"/>
<path d="M5093 7828 c-16 -20 -50 -118 -58 -165 -6 -41 -6 -42 30 -58 50 -20
68 -19 92 8 22 24 31 44 43 96 10 41 -6 78 -46 110 -31 24 -47 26 -61 9z"/>
<path d="M5850 7817 c-32 -16 -50 -70 -57 -167 -5 -65 -2 -82 16 -119 19 -36
26 -42 44 -37 12 3 39 6 59 6 33 0 39 4 52 34 8 18 32 48 54 65 22 18 48 48
58 66 28 53 11 76 -91 124 -94 45 -99 46 -135 28z"/>
<path d="M5487 7714 c-9 -17 -22 -59 -30 -93 l-15 -63 45 -19 c25 -10 49 -19
54 -19 5 0 9 38 9 84 0 75 -3 88 -24 112 l-23 28 -16 -30z"/>
<path d="M9795 7700 c-46 -6 -64 -14 -82 -34 -22 -26 -22 -28 -7 -59 21 -42
84 -107 104 -107 25 1 43 22 73 83 21 45 26 67 21 93 -7 38 -4 37 -109 24z"/>
<path d="M9209 7602 c-13 -9 -46 -19 -73 -22 -43 -4 -51 -9 -67 -39 -18 -34
-18 -35 4 -75 32 -57 92 -116 121 -116 22 0 76 43 76 61 0 5 16 27 36 49 l36
40 -26 31 c-14 17 -26 34 -26 38 0 4 -13 17 -29 28 -27 21 -30 21 -52 5z"/>
<path d="M477 7525 c-30 -21 -37 -32 -37 -58 0 -18 -5 -51 -10 -75 -15 -65 2
-93 70 -115 45 -15 56 -16 65 -5 5 7 22 21 37 31 54 34 84 136 54 182 -23 35
-74 65 -111 65 -17 0 -47 -11 -68 -25z"/>
<path d="M6301 7526 c-30 -17 -50 -52 -51 -89 0 -16 -5 -37 -11 -48 -6 -12
-16 -48 -23 -81 -11 -56 -15 -62 -46 -72 -43 -14 -47 -27 -18 -60 16 -19 57
-38 138 -65 63 -21 130 -41 148 -44 33 -7 33 -7 27 24 -4 18 -8 111 -9 207
l-2 175 -49 34 c-54 36 -68 39 -104 19z"/>
<path d="M4259 7476 c-13 -13 -34 -26 -45 -30 -12 -4 -34 -18 -48 -31 -33 -30
-35 -90 -5 -155 24 -53 51 -84 102 -116 35 -23 39 -23 65 -9 61 33 61 32 64
169 l3 127 -37 35 c-44 40 -67 43 -99 10z"/>
<path d="M4625 7481 c-3 -6 -1 -28 4 -48 8 -29 21 -44 51 -61 l40 -23 0 -65
c0 -45 6 -77 20 -104 13 -25 20 -59 20 -94 0 -53 -2 -56 -33 -71 -19 -9 -49
-31 -67 -50 -30 -31 -31 -35 -16 -50 9 -9 16 -25 16 -36 0 -12 13 -34 30 -50
l30 -30 46 33 c65 46 74 63 74 135 0 50 4 67 20 83 11 11 24 20 29 20 6 0 6
12 0 32 -5 18 -9 52 -9 76 0 92 -16 125 -100 201 -88 80 -145 117 -155 102z"/>
<path d="M981 7352 c12 -31 25 -61 29 -66 10 -10 122 -37 129 -31 7 8 -18 82
-32 94 -8 6 -44 22 -80 36 l-67 25 21 -58z"/>
<path d="M8870 7337 c-52 -26 -97 -130 -70 -162 7 -8 28 -15 46 -15 34 0 34
-1 34 -45 l0 -45 38 0 c51 0 106 17 134 40 23 20 23 20 3 38 -11 9 -47 53 -80
97 -33 44 -64 85 -70 92 -8 10 -15 10 -35 0z"/>
<path d="M5454 7269 c-32 -23 -62 -44 -66 -48 -11 -10 17 -161 43 -230 12 -34
35 -73 55 -92 l34 -33 52 24 c76 34 78 37 78 91 0 27 7 66 14 86 8 21 20 58
26 83 7 25 18 54 25 66 12 19 10 22 -17 39 -25 14 -154 54 -179 55 -3 0 -32
-18 -65 -41z"/>
<path d="M9460 7264 c-49 -34 -90 -78 -90 -98 0 -33 42 -98 76 -118 17 -10 54
-22 83 -28 47 -9 56 -8 82 11 16 11 38 38 49 58 19 38 19 38 -2 80 -42 84
-143 133 -198 95z"/>
<path d="M0 7112 l0 -130 58 -5 c54 -5 58 -4 84 26 36 40 35 50 -5 84 -19 15
-52 54 -75 85 -23 31 -46 59 -52 63 -7 4 -10 -38 -10 -123z"/>
<path d="M3790 7103 c0 -69 -6 -80 -51 -103 -21 -11 -45 -30 -53 -42 -19 -26
-21 -110 -5 -157 14 -41 91 -121 116 -121 10 0 53 11 96 25 43 14 102 25 132
25 69 0 80 16 71 104 -14 126 -40 158 -191 235 -47 24 -93 53 -101 65 -13 19
-14 17 -14 -31z"/>
<path d="M6015 7006 c-22 -6 -45 -14 -52 -19 -17 -11 -61 -153 -70 -227 -7
-54 -11 -65 -28 -68 -51 -7 -61 -13 -78 -41 -9 -16 -17 -32 -17 -35 0 -3 105
-6 233 -8 127 -2 240 -7 250 -12 13 -6 25 1 52 30 22 24 33 44 29 54 -3 8 -17
44 -29 80 -21 58 -26 65 -52 68 -15 1 -45 7 -65 12 l-38 11 0 57 c-1 49 -4 60
-25 75 -40 29 -67 34 -110 23z"/>
<path d="M2315 6971 l-70 -6 110 -6 c65 -4 126 -13 149 -23 21 -9 62 -16 92
-16 53 0 53 0 81 -47 15 -27 48 -74 73 -105 42 -54 48 -58 87 -58 54 0 73 -20
73 -74 l0 -43 59 -6 c90 -10 106 -21 131 -88 11 -32 36 -74 54 -94 29 -31 39
-35 82 -35 27 0 64 -4 81 -9 50 -14 66 -5 100 62 44 85 56 130 48 177 -6 36
-10 40 -35 40 -18 0 -53 17 -92 45 -211 150 -236 160 -248 100 -14 -65 -25
-75 -90 -75 l-59 0 -63 92 c-81 118 -92 123 -368 158 -36 4 -78 10 -95 13 -16
2 -61 1 -100 -2z"/>
<path d="M1150 6837 c0 -8 6 -17 14 -20 7 -3 16 -27 20 -54 5 -40 12 -52 39
-70 32 -22 34 -22 75 -6 23 9 42 20 42 24 0 5 -19 23 -42 40 -31 22 -44 39
-48 62 -5 30 -8 32 -52 35 -37 2 -48 0 -48 -11z"/>
<path d="M9041 6820 c-53 -39 -57 -51 -36 -107 26 -67 62 -103 111 -110 37 -5
43 -2 61 23 36 51 46 99 29 132 -19 37 -81 92 -105 92 -10 0 -37 -14 -60 -30z"/>
<path d="M765 6775 c-5 -2 -29 -9 -52 -15 -61 -15 -70 -39 -38 -94 20 -35 33
-45 61 -51 38 -7 65 6 117 53 35 33 34 41 -6 80 -30 29 -54 37 -82 27z"/>
<path d="M9588 6723 c-9 -10 -23 -35 -31 -55 -11 -25 -28 -43 -55 -57 -56 -29
-92 -75 -92 -118 0 -28 8 -44 38 -73 56 -57 93 -60 167 -16 70 42 123 90 165
147 28 40 29 42 15 78 -8 20 -34 53 -56 74 -36 32 -48 37 -89 37 -32 0 -52 -6
-62 -17z"/>
<path d="M2245 6720 c-3 -5 -12 -30 -20 -56 -14 -46 -13 -48 10 -76 14 -16 25
-37 25 -46 0 -36 21 -88 45 -114 14 -15 25 -31 25 -36 0 -10 28 -17 118 -28
l52 -7 0 132 0 131 -29 0 c-17 0 -52 15 -82 36 -51 34 -123 74 -133 74 -3 0
-8 -4 -11 -10z"/>
<path d="M136 6673 c-20 -146 -19 -165 13 -225 17 -31 33 -74 37 -96 10 -61
16 -66 57 -53 61 20 127 107 141 184 13 69 -42 140 -159 208 -71 41 -82 39
-89 -18z"/>
<path d="M1648 6625 c-15 -8 -29 -24 -33 -34 -7 -24 88 -317 112 -343 9 -10
40 -25 69 -34 29 -8 63 -24 77 -34 l24 -19 6 97 c14 202 4 292 -32 292 -10 0
-33 11 -52 25 -97 71 -119 78 -171 50z"/>
<path d="M4231 6555 c-24 -25 -48 -45 -52 -45 -18 0 -79 -94 -79 -122 0 -16
18 -66 40 -110 22 -45 40 -94 40 -110 0 -16 5 -28 13 -28 25 1 103 42 135 73
39 38 40 57 12 223 -16 91 -26 124 -43 141 l-22 23 -44 -45z"/>
<path d="M8330 6486 c0 -35 -3 -72 -6 -80 -4 -9 -47 -44 -97 -77 -96 -65 -265
-136 -347 -146 l-45 -5 9 -78 9 -77 80 -6 c107 -9 164 9 242 73 33 28 94 76
135 107 41 31 103 82 138 112 53 48 65 65 81 116 11 33 16 63 13 67 -15 15
-147 58 -178 58 l-34 0 0 -64z"/>
<path d="M3688 6490 c-18 -13 -30 -40 -42 -84 -23 -91 -21 -104 12 -112 15 -4
43 -15 63 -26 l36 -20 51 54 c28 29 52 60 52 68 0 19 -35 77 -68 113 -31 32
-69 35 -104 7z"/>
<path d="M1201 6351 c-29 -25 -75 -67 -102 -92 -46 -44 -49 -48 -38 -73 8 -17
25 -30 49 -37 31 -10 47 -8 106 14 66 23 70 27 101 83 17 33 32 61 32 64 1 3
-20 24 -47 46 l-48 41 -53 -46z"/>
<path d="M9902 6320 c-29 -17 -66 -49 -83 -72 -26 -37 -29 -48 -23 -83 9 -55
41 -129 67 -153 12 -10 36 -24 52 -30 17 -5 38 -13 48 -17 16 -7 17 6 17 189
0 150 -3 196 -12 196 -7 0 -37 -14 -66 -30z"/>
<path d="M8863 6247 c-43 -45 -106 -103 -141 -130 -99 -75 -130 -144 -97 -218
10 -21 21 -39 25 -39 3 0 26 -17 50 -37 l43 -37 24 29 c25 28 25 31 22 179
l-4 151 57 3 c32 2 66 -2 77 -7 16 -9 21 -5 40 38 11 26 22 67 23 91 3 36 0
44 -19 51 -18 7 -33 -4 -100 -74z"/>
<path d="M6350 6290 c-36 -4 -81 -15 -101 -23 -50 -21 -97 -72 -109 -120 -6
-23 -14 -50 -16 -60 -8 -25 51 -47 130 -47 71 0 83 8 171 115 21 26 54 54 74
62 39 17 60 39 61 66 0 15 -10 17 -72 16 -40 -1 -102 -5 -138 -9z"/>
<path d="M7541 6241 c-17 -31 -13 -90 11 -167 23 -71 23 -72 71 -87 l47 -15
-1 36 c0 21 -8 84 -17 142 l-17 105 -42 3 c-33 2 -44 -1 -52 -17z"/>
<path d="M9143 6218 c-13 -29 -8 -254 6 -291 6 -15 22 -32 36 -37 14 -5 25
-16 25 -25 0 -22 6 -19 56 22 47 38 94 107 94 137 0 42 -35 88 -99 133 -36 26
-75 55 -87 65 -20 18 -21 18 -31 -4z"/>
<path d="M7033 6220 c-64 -15 -275 -104 -283 -119 -4 -9 -11 -35 -15 -58 -6
-37 -4 -42 17 -49 33 -11 561 -6 592 6 24 9 26 14 25 67 -1 80 -10 107 -39
115 -177 50 -223 56 -297 38z"/>
<path d="M2115 6171 c-33 -4 -70 -12 -82 -19 -12 -6 -43 -12 -70 -12 l-48 0
39 -26 c21 -14 45 -42 54 -62 l16 -37 15 63 14 62 60 0 60 0 -4 -132 -4 -133
125 2 c69 2 136 6 150 9 l25 6 -27 14 c-20 11 -41 43 -77 119 -27 57 -61 116
-75 130 -27 27 -46 29 -171 16z"/>
<path d="M2830 6169 c-14 -6 -46 -24 -72 -40 -41 -27 -49 -38 -68 -95 -24 -70
-58 -118 -93 -131 -16 -6 -6 -9 43 -14 36 -3 122 -11 191 -18 107 -10 139 -10
225 4 54 9 103 20 107 24 12 12 -10 110 -31 143 -17 26 -103 87 -171 123 -34
17 -93 19 -131 4z"/>
<path d="M3436 6128 c-20 -31 -41 -195 -26 -213 16 -19 99 -52 152 -59 l46 -7
4 76 3 76 -60 57 c-103 99 -101 98 -119 70z"/>
<path d="M685 6053 c-36 -18 -83 -61 -97 -86 -14 -26 25 -126 62 -162 33 -32
61 -29 107 9 23 19 31 38 41 95 13 70 13 71 -14 106 -23 30 -54 56 -66 55 -2
-1 -16 -8 -33 -17z"/>
<path d="M1336 5974 c-99 -36 -100 -80 -5 -279 74 -155 80 -159 150 -95 24 22
47 40 52 40 4 0 15 13 25 30 17 27 17 36 5 107 -17 103 -20 108 -55 149 -56
63 -99 75 -172 48z"/>
<path d="M3766 5938 c-3 -17 -6 -50 -6 -73 0 -40 2 -44 38 -58 22 -9 66 -21
99 -28 55 -11 64 -11 90 6 15 10 44 21 63 25 48 7 53 45 13 89 -25 28 -38 32
-128 46 -179 27 -162 27 -169 -7z"/>
<path d="M5835 5943 c-11 -3 -25 -10 -32 -15 -14 -11 -53 -89 -53 -106 0 -15
38 -15 135 -1 71 11 76 13 70 33 -4 11 -9 38 -12 59 -5 36 -6 37 -47 36 -22
-1 -50 -4 -61 -6z"/>
<path d="M4354 5806 c-40 -18 -75 -67 -81 -115 -6 -42 0 -49 53 -61 32 -8 34
-7 34 20 0 20 13 39 45 69 l46 42 -23 29 c-26 33 -32 34 -74 16z"/>
<path d="M9585 5784 c-21 -14 -60 -49 -85 -77 -26 -29 -62 -68 -80 -87 -17
-19 -38 -48 -47 -64 -14 -26 -13 -31 4 -55 30 -40 92 -71 143 -71 25 0 51 -4
59 -9 23 -15 102 27 164 88 59 57 97 120 97 159 0 24 -54 68 -130 107 -74 37
-83 38 -125 9z"/>
<path d="M247 5718 c-33 -44 -73 -125 -80 -164 -6 -30 -4 -32 66 -67 l72 -36
42 44 c41 42 43 45 37 92 -8 57 -47 124 -85 147 -27 16 -28 16 -52 -16z"/>
<path d="M7562 5739 c-29 -11 -24 -30 11 -47 53 -26 59 -48 55 -196 l-3 -134
50 -4 50 -3 -3 74 c-2 42 1 78 7 84 16 16 311 -12 311 -30 0 -9 14 -13 41 -13
54 0 69 -17 69 -82 1 -46 5 -58 35 -90 19 -20 54 -44 77 -52 l43 -14 -2 -59
c-1 -32 -5 -86 -9 -120 l-6 -63 -71 0 c-47 -1 -79 -6 -91 -15 -26 -20 -108
-19 -174 0 -40 12 -57 13 -73 5 -20 -11 -20 -12 -3 -31 9 -10 26 -19 36 -19
10 0 41 -11 68 -25 30 -15 66 -25 94 -25 81 0 125 -40 126 -115 0 -23 9 -53
20 -70 13 -19 20 -47 20 -77 l0 -48 54 0 c38 0 61 -6 77 -19 l24 -19 17 71
c10 40 18 100 18 135 0 35 7 79 16 100 9 20 26 68 39 105 13 38 31 77 39 86
28 31 20 49 -21 53 l-38 3 -5 156 c-5 153 -5 156 -34 190 -44 52 -123 99 -169
99 l-39 0 3 78 c2 63 0 76 -12 72 -8 -3 -105 -4 -217 -3 -168 1 -207 4 -227
17 -14 9 -25 23 -25 31 0 12 -14 15 -64 15 -35 0 -70 2 -78 4 -7 3 -24 1 -36
-5z"/>
<path d="M7015 5720 l-60 -5 -13 -115 c-7 -63 -14 -126 -15 -139 -3 -33 26
-39 221 -47 l152 -7 0 82 c0 77 1 82 25 93 28 13 32 36 11 76 -29 56 -45 62
-157 65 -57 1 -131 0 -164 -3z"/>
<path d="M3061 5694 c-39 -7 -83 -19 -96 -28 -24 -16 -25 -21 -24 -124 0 -59
3 -125 7 -147 l8 -40 65 0 c54 0 68 4 89 24 24 22 30 23 120 17 52 -3 119 -6
148 -6 49 0 52 -2 52 -25 0 -13 14 -51 30 -83 22 -43 30 -74 30 -111 0 -37 4
-53 15 -57 19 -8 21 -104 3 -122 -7 -7 -43 -12 -89 -12 -95 0 -123 14 -225
112 -74 70 -152 113 -186 102 -11 -3 -33 -27 -49 -52 -24 -38 -29 -57 -29
-108 0 -108 0 -108 -137 -129 -165 -24 -194 -38 -232 -114 -17 -33 -31 -72
-31 -85 0 -14 -4 -28 -10 -31 -23 -14 -7 -25 35 -25 l45 0 0 59 c0 73 16 94
85 109 81 18 284 26 301 12 9 -8 14 -32 14 -71 l0 -59 28 6 c15 3 38 14 52 24
23 16 25 24 30 128 4 69 11 117 18 124 7 7 46 14 87 16 l75 4 0 -143 c0 -79 4
-150 9 -158 15 -24 136 31 199 90 48 45 56 49 101 49 l49 0 -18 38 c-11 20
-28 55 -38 77 -10 22 -28 58 -40 80 -30 59 -42 105 -42 163 0 45 3 53 30 72
17 12 52 25 78 28 l47 7 7 60 c3 33 11 76 17 95 6 19 11 58 11 87 0 58 1 57
-95 72 -59 9 -129 21 -356 65 -104 20 -124 21 -188 10z"/>
<path d="M6235 5671 c-11 -5 -42 -11 -70 -15 -81 -11 -105 -24 -105 -57 0 -54
30 -108 71 -129 50 -26 59 -25 59 4 0 37 39 56 112 56 61 0 64 -1 86 -35 30
-43 55 -59 121 -79 62 -18 145 -7 156 22 3 9 3 60 -1 114 l-6 97 -87 4 c-47 3
-131 7 -186 9 -55 2 -107 6 -115 10 -8 4 -24 3 -35 -1z"/>
<path d="M1013 5648 c-27 -13 -28 -19 -8 -85 18 -62 56 -131 88 -162 23 -20
26 -21 41 -6 24 24 21 118 -5 172 -19 39 -71 94 -87 92 -4 0 -17 -5 -29 -11z"/>
<path d="M2424 5651 c-90 -7 -109 -18 -119 -63 -5 -23 -3 -33 12 -43 10 -7 32
-38 47 -69 l28 -56 143 0 143 0 -5 108 c-2 59 -6 113 -8 120 -5 13 -92 14
-241 3z"/>
<path d="M2030 5602 c0 -26 43 -123 58 -131 10 -5 33 -11 51 -13 32 -3 35 -1
44 32 12 49 9 82 -8 99 -18 18 -145 29 -145 13z"/>
<path d="M3837 5447 c-3 -62 -9 -120 -12 -129 -8 -21 38 -35 150 -47 96 -11
125 1 155 65 32 65 27 70 -145 160 -154 80 -141 84 -148 -49z"/>
<path d="M1740 5524 c-44 -19 -90 -62 -90 -84 0 -10 5 -31 11 -48 l11 -32 106
7 c59 3 108 6 109 7 1 1 -7 28 -18 61 -35 107 -55 121 -129 89z"/>
<path d="M8912 5419 c-18 -12 -42 -40 -53 -62 -18 -34 -20 -50 -14 -105 10
-91 10 -92 48 -80 91 31 223 154 202 187 -6 10 -132 81 -143 81 -4 0 -22 -10
-40 -21z"/>
<path d="M5558 5332 c-43 -2 -78 -7 -78 -12 0 -4 28 -15 63 -23 120 -28 366
-107 409 -132 60 -34 74 -32 82 11 13 65 -25 86 -197 108 -63 9 -134 23 -158
33 -32 13 -65 17 -121 15z"/>
<path d="M9950 5280 c-17 -33 -34 -47 -101 -80 -44 -23 -83 -48 -86 -56 -8
-22 14 -89 40 -119 12 -14 39 -30 59 -34 37 -9 38 -8 48 28 5 20 10 42 10 49
0 7 13 12 30 12 l30 0 0 120 c0 66 -2 120 -5 120 -2 0 -14 -18 -25 -40z"/>
<path d="M6262 5257 c-18 -19 -52 -95 -52 -117 0 -4 26 -10 58 -14 31 -4 73
-9 93 -12 l36 -6 -14 68 c-8 38 -21 77 -30 86 -22 25 -65 22 -91 -5z"/>
<path d="M1530 5240 c-7 -17 -28 -45 -46 -62 -37 -35 -62 -90 -65 -140 -4 -66
36 -218 61 -233 6 -3 26 -31 45 -61 20 -31 42 -54 52 -54 34 0 43 -16 57 -98
14 -81 46 -152 86 -192 17 -17 23 -17 72 -4 29 7 66 14 81 14 15 0 33 5 40 10
7 6 23 19 37 29 32 24 23 34 -18 20 -55 -19 -227 1 -249 29 -18 22 -17 116 1
131 9 8 41 11 85 10 55 -3 74 0 89 14 10 9 24 17 31 17 8 0 11 13 9 37 -3 35
-5 38 -58 53 -77 23 -99 36 -147 87 -41 43 -43 47 -42 106 0 36 8 81 18 107
l19 45 68 0 c38 0 77 -4 87 -9 12 -6 17 -4 17 8 0 12 -9 16 -34 16 -67 0 -206
86 -206 127 0 7 -11 13 -24 13 -13 0 -31 2 -39 6 -9 3 -19 -6 -27 -26z"/>
<path d="M6573 5254 c-8 -4 -9 -15 -2 -37 5 -18 9 -55 9 -83 0 -29 5 -56 13
-62 21 -18 164 -55 307 -80 40 -7 46 -12 57 -42 16 -47 17 -182 1 -198 -7 -7
-22 -12 -34 -12 -18 0 -23 -6 -26 -32 -3 -33 -3 -33 -65 -36 l-63 -3 0 60 c0
58 -1 61 -27 67 -16 4 -50 18 -78 32 -40 20 -70 26 -145 30 -110 5 -115 2
-122 -70 -5 -44 -4 -47 25 -59 33 -14 97 -15 202 -4 95 9 108 0 113 -91 3 -38
10 -72 16 -76 6 -4 34 -10 63 -14 47 -6 56 -4 83 20 26 22 41 26 92 26 33 0
78 -5 99 -12 38 -11 40 -10 84 31 46 42 47 43 110 39 l63 -3 7 49 c9 74 -5 84
-138 92 -92 6 -114 11 -145 32 -20 14 -49 29 -64 34 -28 10 -28 10 -28 108 l0
99 -57 3 c-62 3 -74 15 -88 81 -6 30 -58 59 -130 73 -20 3 -42 15 -48 25 -11
18 -55 25 -84 13z"/>
<path d="M7052 5202 c-11 -11 -22 -39 -26 -62 -4 -24 -12 -50 -18 -57 -8 -10
-6 -13 7 -13 9 0 19 9 22 20 7 25 34 32 99 28 47 -3 49 -4 52 -35 3 -26 9 -34
30 -39 48 -12 86 -36 133 -86 31 -33 53 -48 71 -48 14 0 45 -7 68 -15 23 -8
44 -15 46 -15 2 0 4 32 4 71 l0 70 65 -2 c58 -2 68 0 81 20 22 31 10 67 -38
115 -37 38 -40 39 -50 21 -30 -56 -48 -65 -128 -65 -63 0 -88 5 -136 27 -45
21 -80 29 -149 33 -84 5 -90 7 -93 28 -4 27 -16 28 -40 4z"/>
<path d="M2470 5192 c0 -19 21 -123 26 -130 1 -2 20 2 42 9 45 13 62 40 62 94
0 31 -3 35 -27 35 -16 0 -45 3 -65 6 -34 6 -38 4 -38 -14z"/>
<path d="M4264 5161 c-38 -35 -67 -51 -112 -64 -51 -14 -78 -32 -171 -109 -60
-51 -113 -101 -116 -112 -8 -21 10 -93 31 -120 14 -19 15 -19 52 16 35 35 163
111 372 222 l95 51 -1 40 c-1 75 -10 92 -57 108 l-43 14 -50 -46z"/>
<path d="M9185 5046 c-93 -32 -130 -71 -121 -130 9 -63 25 -112 44 -136 l18
-22 79 57 c51 36 85 68 94 88 7 18 17 39 21 47 4 8 1 29 -6 45 -7 17 -13 40
-14 53 0 28 -23 28 -115 -2z"/>
<path d="M220 4923 c0 -49 -2 -54 -35 -75 -20 -13 -41 -39 -50 -61 -22 -56
-20 -164 6 -223 23 -52 65 -104 84 -104 7 0 33 18 59 41 36 32 46 47 46 72 0
18 9 64 21 103 l21 70 -24 35 c-12 19 -39 61 -58 93 -19 31 -43 67 -52 79 -17
22 -17 21 -18 -30z"/>
<path d="M5430 4908 c11 -40 107 -130 165 -155 22 -10 80 -37 128 -60 49 -24
94 -43 102 -43 7 0 34 -16 59 -35 l46 -35 0 48 c0 33 11 74 36 131 40 92 39
98 -28 132 -68 35 -168 49 -348 49 l-169 0 9 -32z"/>
<path d="M984 4782 c-33 -21 -77 -59 -98 -83 -33 -39 -37 -49 -33 -83 11 -84
77 -125 168 -104 35 8 59 21 78 44 25 28 28 37 24 85 -5 53 -55 179 -71 179
-5 0 -36 -17 -68 -38z"/>
<path d="M9505 4749 c-38 -27 -80 -52 -92 -55 -27 -7 -28 -15 -7 -57 17 -35
103 -127 117 -127 5 0 30 -11 56 -24 46 -23 47 -23 81 -5 19 11 42 19 52 19
36 0 51 16 84 84 19 39 34 75 34 81 0 6 -17 17 -37 24 -21 8 -71 36 -112 62
-41 27 -82 49 -90 48 -9 0 -47 -22 -86 -50z"/>
<path d="M7705 4783 c-11 -3 -26 -10 -34 -17 -26 -20 -51 -90 -51 -141 0 -28
-5 -56 -12 -63 -20 -20 -177 -16 -220 6 l-36 19 -5 -66 c-8 -101 18 -120 107
-80 34 15 51 30 64 57 17 36 18 37 79 40 34 2 77 -1 95 -6 27 -7 39 -4 70 16
31 20 35 27 29 45 -5 12 -12 47 -15 77 -10 74 -25 120 -39 119 -7 -1 -21 -4
-32 -6z"/>
<path d="M3695 4670 c-4 -14 -14 -40 -23 -58 -12 -27 -13 -35 -2 -42 7 -4 15
-37 19 -73 4 -36 13 -72 20 -81 9 -11 12 -37 9 -86 l-4 -70 78 0 c62 0 80 3
85 16 3 8 -11 50 -31 93 -26 56 -36 90 -36 127 0 47 -2 51 -34 66 -28 14 -37
27 -53 75 -18 52 -21 56 -28 33z"/>
<path d="M4396 4621 c-4 -6 -23 -11 -42 -11 -20 0 -44 -5 -54 -10 -11 -6 -61
-15 -112 -20 -139 -14 -178 -21 -178 -31 0 -5 14 -43 32 -86 17 -43 34 -95 37
-116 l6 -38 72 48 c119 79 227 159 251 185 21 23 21 27 9 58 -9 19 -17 28 -21
21z"/>
<path d="M3290 4570 c0 -14 -75 -50 -105 -50 -47 0 -159 -30 -185 -50 l-24
-18 17 -94 c9 -51 18 -123 20 -159 4 -91 13 -99 103 -99 l73 0 3 93 3 92 35 3
c52 4 123 24 139 40 11 10 36 13 98 10 46 -1 83 0 83 3 0 18 -41 39 -77 39
-60 0 -73 8 -73 44 0 34 -22 74 -68 124 -32 33 -42 39 -42 22z"/>
<path d="M6133 4538 c-18 -19 -33 -39 -33 -45 0 -11 90 -73 106 -73 6 0 25 16
44 35 23 24 43 35 62 35 26 0 28 2 18 20 -15 27 -57 48 -116 55 -46 6 -51 5
-81 -27z"/>
<path d="M8130 4444 c-36 -7 -91 -12 -122 -13 -47 -1 -60 -5 -72 -23 -9 -12
-16 -30 -16 -40 0 -19 49 -118 64 -129 12 -9 20 -101 12 -134 l-7 -27 -114 4
-115 3 0 -40 c-1 -61 -45 -103 -134 -126 -47 -12 -59 -32 -35 -56 6 -6 14 -45
17 -85 5 -73 13 -90 83 -172 4 -4 38 20 76 55 37 36 90 82 117 104 53 43 76
85 76 138 0 20 10 49 24 70 13 19 27 46 31 58 12 38 25 49 59 49 17 0 47 3 67
6 36 6 36 7 18 25 -15 15 -19 34 -19 95 0 65 5 88 35 157 19 44 32 84 28 87
-5 3 -37 0 -73 -6z"/>
<path d="M8942 4421 c-51 -29 -150 -98 -205 -144 -32 -27 -30 -37 23 -120 51
-80 59 -83 128 -50 53 26 60 33 94 103 42 85 68 218 46 232 -20 12 -29 10 -86
-21z"/>
<path d="M1204 4409 c-28 -19 -48 -44 -63 -78 l-21 -50 21 -55 c11 -31 24 -56
29 -56 5 0 24 9 43 20 25 15 45 41 69 90 33 66 34 69 18 99 -8 17 -24 37 -35
45 -18 12 -25 11 -61 -15z"/>
<path d="M5510 4418 c-18 -13 -42 -35 -54 -51 l-20 -27 24 -24 c20 -20 38 -25
90 -28 l65 -3 9 49 c10 47 9 50 -22 77 -39 35 -49 36 -92 7z"/>
<path d="M6392 4353 l-23 -56 53 -54 c29 -30 73 -66 98 -80 25 -15 67 -42 94
-60 81 -55 86 -51 110 78 17 88 12 100 -52 133 -27 14 -54 32 -62 41 -26 31
-88 55 -142 55 l-53 0 -23 -57z"/>
<path d="M2530 4353 c0 -16 -12 -48 -25 -72 -20 -34 -23 -46 -13 -53 18 -11
38 -10 38 2 0 6 40 10 100 10 l100 0 0 -69 c0 -65 -2 -71 -30 -93 -17 -13 -34
-38 -39 -54 l-9 -31 39 10 c26 6 47 21 62 41 44 62 47 73 31 117 -7 23 -14 74
-14 114 0 100 -7 105 -138 105 l-102 0 0 -27z"/>
<path d="M585 4353 c-44 -24 -95 -64 -105 -84 -11 -20 3 -68 34 -116 11 -17
50 -48 86 -68 36 -21 76 -48 90 -60 l25 -23 46 30 c25 17 51 39 58 50 12 19 5
39 -57 166 -14 29 -122 123 -140 122 -4 -1 -20 -8 -37 -17z"/>
<path d="M4465 4322 c-78 -44 -136 -82 -185 -122 -65 -53 -114 -80 -144 -80
-27 0 -33 -9 -17 -25 6 -6 23 -50 39 -98 17 -49 32 -90 34 -93 3 -2 21 19 40
48 31 47 47 59 140 106 58 30 120 66 137 80 l32 27 -7 93 c-4 50 -10 92 -13
92 -3 0 -28 -13 -56 -28z"/>
<path d="M5790 4327 c0 -16 35 -49 70 -67 13 -7 33 -24 43 -36 10 -13 33 -27
50 -32 25 -6 33 -15 40 -43 11 -48 68 -224 76 -238 16 -25 154 42 173 84 20
44 2 70 -99 145 -107 79 -353 209 -353 187z"/>
<path d="M7076 4308 c-18 -25 -21 -61 -6 -87 17 -32 130 -66 143 -43 3 4 -3
32 -12 62 -17 55 -29 67 -88 84 -15 5 -26 1 -37 -16z"/>
<path d="M1854 4209 c-26 -41 -26 -42 -9 -86 9 -24 34 -63 54 -87 20 -23 53
-65 75 -93 21 -28 59 -68 83 -88 l45 -38 45 46 46 45 -22 27 c-18 23 -21 41
-21 111 0 83 9 116 40 141 13 11 11 12 -11 13 -14 0 -43 11 -63 25 -33 23 -47
25 -136 25 l-100 0 -26 -41z"/>
<path d="M5356 4144 c-11 -30 47 -401 68 -428 9 -14 24 -14 106 -5 52 6 97 12
99 15 4 4 0 10 -56 83 -17 23 -34 60 -38 84 -4 23 -13 52 -21 64 -16 26 -19
134 -4 149 19 19 -23 41 -87 47 -47 4 -63 2 -67 -9z"/>
<path d="M1398 4084 c-26 -19 -58 -53 -72 -74 l-26 -39 31 -21 c38 -28 52 -22
89 37 16 26 35 55 43 63 25 27 29 41 17 55 -18 22 -32 19 -82 -21z"/>
<path d="M9497 4023 c-46 -64 -68 -109 -62 -126 3 -7 32 -18 67 -24 59 -9 63
-9 85 15 13 14 23 32 23 41 0 9 9 24 20 34 20 17 27 47 12 47 -5 0 -17 8 -28
19 -23 21 -58 41 -72 41 -6 0 -26 -21 -45 -47z"/>
<path d="M3700 4020 c-6 -11 -18 -20 -27 -20 -9 0 -23 -7 -32 -15 -101 -92
-121 -105 -162 -105 -37 0 -39 -1 -39 -33 0 -18 9 -58 20 -89 11 -31 23 -89
26 -127 l7 -71 46 0 47 0 -4 66 -4 66 53 55 c30 30 71 63 92 74 49 25 67 68
67 154 l0 65 -40 0 c-29 0 -42 -5 -50 -20z"/>
<path d="M226 3910 c-33 -21 -53 -54 -72 -117 -8 -27 -9 -45 -3 -48 5 -4 18
-23 29 -43 11 -20 33 -52 49 -70 l29 -33 58 17 c62 18 72 22 119 47 39 21 85
43 110 53 16 7 12 9 -20 12 -44 4 -67 23 -100 85 -16 32 -37 50 -91 79 -38 20
-71 37 -74 37 -3 1 -18 -8 -34 -19z"/>
<path d="M8505 3902 c-59 -37 -67 -82 -25 -150 21 -34 106 -82 146 -82 29 0
167 131 159 150 -6 17 -85 70 -129 87 -47 18 -117 15 -151 -5z"/>
<path d="M6435 3878 c-3 -12 -10 -48 -14 -78 -8 -50 -6 -60 20 -112 31 -61 54
-82 104 -94 17 -4 42 -13 57 -21 25 -12 30 -11 48 7 11 11 31 20 44 20 56 0
93 30 80 65 -4 8 -32 29 -64 46 -32 17 -95 64 -140 105 -45 41 -86 74 -90 74
-5 0 -15 3 -24 6 -10 4 -17 -2 -21 -18z"/>
<path d="M992 3854 l-44 -26 7 -47 c9 -58 30 -110 53 -128 39 -31 94 -53 131
-53 43 0 48 7 69 107 8 37 7 46 -15 77 -23 36 -114 96 -143 96 -8 0 -35 -12
-58 -26z"/>
<path d="M9220 3859 c-30 -10 -66 -30 -80 -44 -25 -25 -25 -25 -6 -59 16 -30
24 -35 65 -38 52 -5 63 1 102 55 24 34 26 40 14 55 -8 9 -20 25 -27 34 -12 16
-16 16 -68 -3z"/>
<path d="M2308 3736 c-57 -30 -89 -54 -102 -76 -19 -32 -19 -33 0 -68 24 -45
128 -132 157 -132 29 1 135 36 164 55 12 8 43 15 69 15 l47 0 -44 43 c-24 23
-60 60 -80 82 -20 22 -51 53 -68 68 -17 16 -31 32 -31 37 0 23 -38 15 -112
-24z"/>
<path d="M9965 3760 c-3 -5 -37 -10 -74 -10 -108 0 -182 -47 -197 -125 -5 -26
1 -46 23 -87 35 -65 103 -138 129 -138 11 0 25 -5 30 -10 6 -6 30 -7 57 -4
l47 7 0 188 c0 104 -2 189 -4 189 -3 0 -8 -4 -11 -10z"/>
<path d="M1522 3696 c-28 -15 -46 -41 -62 -89 -11 -35 -10 -41 14 -78 15 -21
32 -39 40 -39 16 0 75 39 114 75 15 14 31 25 35 25 13 0 -72 93 -97 107 -16 8
-27 8 -44 -1z"/>
<path d="M3095 3627 c-38 -22 -112 -52 -162 -68 -51 -17 -93 -32 -93 -34 0
-12 29 -67 61 -115 69 -105 72 -115 65 -215 -6 -100 8 -101 19 -1 11 89 48
190 81 221 38 35 65 45 124 45 27 0 55 3 64 6 35 13 8 86 -48 129 -19 15 -36
36 -38 49 -3 21 -5 21 -73 -17z"/>
<path d="M7440 3610 c0 -46 -2 -50 -24 -50 -19 0 -25 -6 -28 -27 -3 -27 -5
-28 -77 -31 -41 -2 -78 1 -83 6 -5 5 -40 7 -77 4 -73 -5 -91 3 -162 66 l-26
23 -23 -55 -22 -56 41 -46 c31 -35 41 -55 41 -80 l0 -34 54 0 c30 0 66 -4 81
-10 20 -8 27 -7 31 5 7 18 104 21 153 4 31 -11 31 -12 31 -79 0 -41 -5 -74
-12 -82 -7 -7 -23 -28 -36 -46 l-23 -32 26 -10 c25 -9 25 -10 25 -128 l0 -119
-46 -49 c-72 -78 -77 -109 -18 -137 19 -9 34 -21 34 -27 0 -6 28 -10 65 -10
61 0 65 -1 71 -26 4 -14 4 -57 2 -95 -3 -38 -2 -69 3 -69 4 0 16 -3 26 -6 17
-5 17 -5 1 9 -14 11 -18 30 -18 81 l0 66 54 0 c42 0 58 -4 68 -18 10 -14 30
-20 81 -24 l67 -6 0 43 c0 23 -4 55 -10 71 -5 16 -16 66 -24 111 -21 122 -53
182 -149 282 -152 158 -157 165 -157 241 0 49 5 74 18 91 10 13 37 56 60 94
39 66 41 74 35 124 -6 49 -23 81 -44 81 -5 0 -9 -22 -9 -50z"/>
<path d="M8147 3539 c-26 -17 -49 -34 -52 -38 -2 -4 16 -27 40 -51 l44 -43 41
18 c47 21 111 102 88 110 -53 19 -102 35 -108 35 -3 0 -28 -14 -53 -31z"/>
<path d="M0 3315 c0 -146 3 -215 11 -215 19 0 53 22 90 57 l36 34 -33 92 c-17
51 -44 112 -58 137 -14 25 -26 60 -26 78 0 17 -4 32 -10 32 -6 0 -10 -78 -10
-215z"/>
<path d="M572 3523 c-8 -3 -50 -29 -95 -59 -45 -29 -94 -56 -110 -60 -26 -5
-28 -9 -21 -37 15 -72 22 -80 60 -74 19 3 70 23 112 44 73 36 78 41 95 88 10
28 26 56 35 63 16 12 16 14 -2 28 -20 14 -49 17 -74 7z"/>
<path d="M4531 3438 c-97 -108 -121 -160 -121 -259 0 -52 -6 -90 -19 -120 -10
-24 -21 -81 -24 -126 l-6 -81 77 5 c45 3 83 11 92 19 12 12 12 14 -3 14 -14 0
-17 9 -17 49 0 49 -1 50 -32 53 -33 3 -33 4 -36 59 -3 63 3 69 83 69 l41 0 31
73 31 72 -11 128 -12 128 -74 -83z"/>
<path d="M5447 3513 c-2 -4 -1 -35 4 -68 11 -90 10 -194 -2 -217 -16 -31 6
-98 62 -183 54 -83 74 -100 147 -121 59 -18 72 -34 72 -96 0 -24 3 -54 7 -68
l7 -25 6 25 c5 23 11 25 72 30 37 3 70 9 74 13 15 15 33 102 34 162 0 55 -4
66 -44 126 -35 52 -55 71 -93 89 -26 12 -67 40 -90 61 -47 43 -82 56 -111 40
-12 -6 -43 -11 -71 -11 l-51 0 0 54 c0 67 29 106 79 106 29 0 31 3 31 34 0 32
-2 34 -42 40 -24 4 -53 9 -64 12 -12 3 -24 2 -27 -3z"/>
<path d="M8600 3453 c-22 -8 -100 -85 -100 -99 0 -27 53 -72 119 -103 64 -29
74 -31 106 -21 51 17 93 56 104 97 13 45 3 64 -51 103 -35 26 -50 30 -102 29
-34 0 -68 -3 -76 -6z"/>
<path d="M9358 3425 c-20 -15 -42 -40 -49 -56 -10 -27 -9 -33 12 -56 31 -33
126 -77 162 -74 41 2 79 24 116 67 l33 37 -51 51 c-50 49 -52 50 -118 54 -61
3 -72 0 -105 -23z"/>
<path d="M800 3205 c-9 -11 -6 -14 17 -17 30 -3 28 1 78 -170 21 -69 56 -105
127 -129 50 -17 55 -17 83 -1 61 35 84 136 45 199 -32 53 -84 73 -190 73 -70
0 -92 3 -96 14 -3 8 -16 22 -29 30 -20 13 -25 13 -35 1z"/>
<path d="M1451 3184 c-28 -23 -30 -30 -25 -67 18 -121 102 -308 161 -356 21
-17 41 -31 45 -31 19 0 48 42 48 69 0 16 9 48 19 72 29 67 35 122 17 157 -21
41 -102 111 -174 150 l-60 32 -31 -26z"/>
<path d="M2255 3171 c-129 -59 -94 -160 74 -216 l81 -27 38 29 c20 15 54 37
75 47 32 16 37 24 37 53 0 32 -1 33 -44 33 -62 0 -95 15 -134 61 -38 45 -64
49 -127 20z"/>
<path d="M8156 3153 c-4 -5 -49 -10 -99 -13 -90 -5 -91 -5 -110 -37 l-19 -33
30 -30 c26 -25 38 -30 80 -30 39 0 68 -9 135 -44 l85 -44 7 44 6 44 60 0 c32
0 59 3 59 6 0 4 -9 22 -21 41 -23 37 -65 63 -101 63 -13 0 -41 9 -63 20 -46
23 -40 22 -49 13z"/>
<path d="M669 3135 c-60 -21 -113 -52 -142 -83 -23 -24 -26 -33 -18 -54 14
-38 62 -78 93 -78 14 0 47 9 72 20 44 18 53 31 47 70 -1 8 -5 42 -9 76 l-7 61
-36 -12z"/>
<path d="M8985 3056 c-95 -46 -117 -68 -104 -103 13 -34 42 -59 97 -83 41 -18
48 -19 113 -5 39 8 72 15 74 15 6 0 -12 54 -40 115 -27 58 -52 95 -64 95 -4 0
-38 -15 -76 -34z"/>
<path d="M9284 3075 c-10 -24 48 -116 85 -136 33 -18 35 -18 82 7 27 13 49 27
49 30 0 3 -7 18 -15 34 -12 23 -30 33 -94 54 -93 30 -100 31 -107 11z"/>
<path d="M5016 3020 c-66 -73 -41 -154 68 -217 44 -26 56 -17 56 40 0 31 6 61
16 75 9 13 12 28 7 36 -13 23 -93 106 -102 106 -5 0 -25 -18 -45 -40z"/>
<path d="M6274 3030 c4 -14 10 -51 13 -82 l6 -58 34 0 c26 0 50 -12 96 -47 73
-56 77 -60 77 -95 0 -21 5 -28 19 -28 11 0 26 -3 35 -6 13 -5 16 3 16 50 0 53
-1 56 -25 56 -61 0 -169 75 -195 134 -10 22 -32 55 -50 71 -33 30 -33 30 -26
5z"/>
<path d="M9940 2890 c-19 -11 -41 -19 -49 -20 -7 0 -40 -12 -72 -26 -48 -22
-60 -33 -73 -65 -27 -66 -21 -127 20 -205 57 -109 95 -132 140 -83 9 10 30 19
46 19 l28 0 0 200 c0 110 -1 200 -2 200 -2 -1 -19 -9 -38 -20z"/>
<path d="M2080 2843 l-32 -29 1 -127 c1 -70 -2 -127 -7 -127 -18 0 -74 -136
-84 -201 -8 -52 -7 -72 3 -92 54 -96 90 -171 109 -223 29 -83 69 -128 127
-148 51 -18 188 -22 198 -6 4 6 -6 10 -22 10 -43 0 -63 30 -63 95 0 37 4 55
13 55 6 1 22 9 35 20 19 16 21 22 11 44 -7 14 -32 35 -56 47 l-43 21 0 103 c0
119 4 125 80 133 45 4 48 6 39 23 -5 11 -15 19 -23 19 -7 0 -36 7 -64 15 l-52
16 0 68 c0 78 11 94 72 105 39 7 54 31 46 71 -4 22 -116 90 -182 110 -28 9
-56 18 -63 21 -6 3 -26 -8 -43 -23z"/>
<path d="M110 2845 c-8 -10 -30 -15 -61 -15 l-49 0 0 -125 0 -125 41 0 c26 0
50 -7 66 -20 l26 -20 31 23 c17 13 53 51 79 83 56 69 56 88 -1 147 -60 62
-108 81 -132 52z"/>
<path d="M8644 2725 l-39 -34 53 -1 c43 0 58 -5 77 -25 14 -13 25 -28 25 -33
0 -17 85 -51 156 -62 95 -15 146 -15 171 0 16 11 73 107 73 124 0 3 -57 6
-127 9 -136 5 -212 18 -249 42 -41 27 -96 19 -140 -20z"/>
<path d="M4673 2728 c-54 -60 -56 -70 -27 -136 26 -60 28 -62 83 -78 31 -9 82
-19 114 -22 l58 -4 44 47 c24 26 47 56 51 67 13 41 -49 78 -203 122 -50 14
-94 26 -96 26 -2 0 -13 -10 -24 -22z"/>
<path d="M538 2679 c-14 -8 -16 -19 -11 -62 9 -79 41 -135 94 -162 23 -12 29
-11 70 21 24 20 53 50 64 69 24 40 18 49 -67 106 -59 40 -112 50 -150 28z"/>
<path d="M1038 2640 c-38 -20 -74 -61 -102 -116 -14 -28 -14 -33 -1 -44 8 -7
29 -37 46 -67 17 -30 45 -63 62 -73 34 -21 45 -18 111 33 37 29 38 32 34 81
-5 65 -71 206 -96 206 -9 -1 -34 -10 -54 -20z"/>
<path d="M5760 2632 c1 -43 51 -122 92 -146 31 -18 41 -19 58 -8 11 6 39 12
62 12 40 0 45 3 66 40 12 22 29 40 38 40 12 0 13 4 3 23 -22 40 -39 46 -119
40 -49 -3 -96 0 -137 10 l-63 15 0 -26z"/>
<path d="M1420 2595 c-9 -11 -8 -35 4 -111 9 -53 23 -112 31 -131 l14 -34 38
16 c41 16 103 76 103 98 0 17 -93 115 -141 150 -32 23 -39 24 -49 12z"/>
<path d="M5467 2585 c-27 -7 -58 -21 -69 -33 -18 -17 -19 -24 -9 -54 6 -19 22
-45 35 -57 l23 -22 54 26 54 27 -3 54 c-5 67 -18 76 -85 59z"/>
<path d="M8410 2438 c0 -13 -18 -41 -45 -68 -44 -45 -45 -47 -34 -81 13 -37
71 -118 118 -163 18 -18 47 -32 77 -37 40 -8 53 -6 87 14 23 12 50 38 61 59
12 20 26 45 33 56 11 17 5 24 -60 71 -40 28 -95 70 -124 94 -28 23 -66 50 -82
60 -31 18 -31 18 -31 -5z"/>
<path d="M7600 2366 c0 -24 -5 -36 -14 -36 -18 0 -25 -77 -12 -147 l9 -51 70
-4 c39 -2 76 2 84 7 29 22 40 81 27 147 -7 33 -17 65 -21 69 -5 5 -31 15 -59
23 -27 7 -57 17 -66 21 -15 6 -18 2 -18 -29z"/>
<path d="M4428 2332 c-42 -40 -43 -42 -28 -69 17 -31 130 -77 167 -68 24 6
106 102 100 119 -10 29 -60 51 -127 54 -68 4 -69 4 -112 -36z"/>
<path d="M9093 2355 c-18 -8 -33 -18 -33 -24 0 -5 17 -24 39 -43 26 -23 44
-50 56 -88 13 -40 34 -72 79 -119 67 -70 88 -82 161 -101 49 -12 53 -11 115
20 81 40 130 85 130 119 0 45 -36 89 -92 115 -100 47 -242 88 -315 93 -64 4
-73 7 -73 24 0 23 -22 24 -67 4z"/>
<path d="M0 2215 l0 -114 53 -3 52 -3 0 -60 0 -60 -52 -3 c-52 -3 -53 -4 -53
-35 0 -24 3 -28 12 -19 7 7 18 12 26 12 7 0 39 18 71 40 47 31 60 46 64 72 3
18 9 46 13 62 11 44 -17 85 -107 160 l-79 66 0 -115z"/>
<path d="M2712 2299 c-24 -22 -42 -29 -73 -29 -35 0 -39 -2 -31 -17 5 -10 13
-44 16 -75 l7 -56 67 -4 c37 -2 75 -8 85 -12 14 -7 17 -3 17 24 0 17 -5 41
-12 53 -7 12 -19 50 -28 84 l-15 61 -33 -29z"/>
<path d="M6020 2315 c0 -9 -9 -19 -20 -22 -28 -7 -25 -23 14 -101 26 -52 48
-79 91 -112 31 -24 73 -62 93 -85 20 -23 51 -45 67 -49 17 -4 40 -17 52 -28
13 -12 25 -20 27 -17 8 8 -22 188 -33 201 -6 7 -24 32 -39 55 -15 23 -43 54
-62 68 -19 14 -44 42 -55 63 -19 35 -23 37 -78 40 -47 2 -57 0 -57 -13z"/>
<path d="M5110 2289 c-24 -5 -67 -24 -95 -43 -27 -19 -64 -41 -81 -50 -33 -16
-74 -74 -74 -105 0 -32 55 -71 142 -101 83 -28 86 -29 147 -15 71 17 108 34
134 63 18 19 47 109 47 144 0 28 -66 86 -111 98 -22 6 -46 13 -52 14 -7 2 -32
0 -57 -5z"/>
<path d="M571 2204 c-99 -50 -158 -181 -117 -262 7 -15 16 -43 20 -61 18 -98
25 -110 75 -136 l49 -24 38 19 c21 11 46 20 55 20 14 0 18 12 21 58 2 31 0 59
-5 61 -5 2 -12 14 -17 27 -8 20 -16 24 -50 24 -22 0 -56 7 -75 14 -34 15 -35
16 -35 72 l0 57 78 -5 c72 -5 80 -4 118 23 23 15 48 39 57 52 15 23 15 26 -7
46 -13 12 -41 24 -62 27 -21 3 -51 7 -65 9 -16 2 -48 -7 -78 -21z"/>
<path d="M1197 2140 c-51 -16 -78 -53 -98 -139 -14 -62 39 -151 90 -151 14 1
55 9 91 19 l65 18 0 79 c-1 94 -26 147 -81 170 -18 8 -35 14 -36 13 -2 0 -16
-5 -31 -9z"/>
<path d="M4256 2017 c-12 -13 -31 -44 -40 -69 l-18 -47 28 -41 c16 -23 41 -49
57 -58 26 -16 29 -16 74 8 26 14 66 38 90 54 l44 29 -23 24 c-28 31 -128 100
-163 113 -22 8 -30 6 -49 -13z"/>
<path d="M1535 1970 c4 -25 8 -85 10 -133 4 -108 19 -137 71 -137 19 0 52 -9
73 -20 21 -10 59 -24 85 -31 44 -11 49 -10 87 16 22 16 42 32 45 36 2 4 -8 33
-23 63 -31 64 -67 86 -109 67 -14 -6 -56 -11 -94 -11 -78 0 -79 1 -99 86 -7
27 -21 63 -32 80 l-20 29 6 -45z"/>
<path d="M6660 1926 c0 -43 -20 -81 -55 -103 -19 -13 -40 -23 -47 -23 -7 0
-35 -11 -63 -25 -27 -13 -58 -26 -67 -29 -31 -9 -21 -52 26 -113 108 -143 246
-212 429 -216 44 -1 68 19 106 90 l26 48 75 3 c45 2 80 8 90 17 9 8 53 16 112
21 115 8 138 19 120 58 -7 15 -12 44 -12 65 l0 39 -72 5 c-40 3 -83 8 -95 12
-22 7 -23 4 -23 -37 0 -24 -5 -49 -12 -56 -7 -7 -36 -12 -66 -12 -46 0 -58 4
-83 29 -16 16 -29 35 -29 41 0 7 -14 0 -31 -14 -28 -24 -38 -26 -125 -26 -95
0 -95 0 -131 35 l-36 35 6 76 c3 41 11 82 17 90 11 12 7 14 -24 14 -31 0 -36
-3 -36 -24z"/>
<path d="M2601 1901 c-1 -26 -9 -57 -22 -78 -29 -46 -95 -93 -131 -93 -26 0
-28 -3 -28 -37 0 -32 8 -44 59 -94 32 -31 73 -61 91 -67 34 -12 36 -11 98 67
15 19 31 25 75 29 31 2 68 2 82 -2 24 -6 25 -10 25 -79 0 -63 5 -83 36 -147
35 -74 96 -150 121 -150 7 0 27 13 45 29 18 15 55 38 83 50 27 12 59 31 70 41
11 10 36 26 55 34 58 24 145 109 164 160 26 67 19 82 -21 54 -18 -13 -33 -31
-33 -40 0 -39 -189 -38 -277 1 -48 21 -56 30 -87 92 l-34 69 -29 -45 c-27 -44
-29 -45 -81 -45 -54 0 -55 0 -66 53 -4 15 -30 54 -59 85 -29 32 -71 80 -94
108 l-42 49 0 -44z"/>
<path d="M8768 1891 c-58 -37 -86 -81 -53 -81 9 0 34 -18 56 -39 26 -24 58
-43 84 -50 59 -15 59 -15 94 15 29 24 31 30 31 93 0 39 -5 72 -12 79 -7 7 -41
12 -83 12 -61 0 -77 -4 -117 -29z"/>
<path d="M8025 1828 c-11 -7 -49 -14 -85 -17 l-65 -6 50 -53 c68 -74 109 -94
164 -80 31 8 49 20 66 46 29 42 23 59 -33 97 -40 27 -66 31 -97 13z"/>
<path d="M8486 1808 c-22 -32 -20 -45 15 -89 19 -24 44 -42 67 -49 61 -17 62
-16 62 55 0 58 -2 65 -20 65 -11 0 -34 9 -52 20 -42 25 -53 25 -72 -2z"/>
<path d="M4737 1799 c-22 -13 -67 -101 -67 -131 0 -35 56 -145 82 -162 24 -16
134 -35 201 -36 l38 0 -6 83 c-7 74 -10 84 -36 105 -16 13 -29 30 -29 37 0 15
-29 39 -100 85 -49 33 -57 34 -83 19z"/>
<path d="M3806 1755 l-29 -23 34 -4 c33 -3 34 -4 37 -55 2 -36 -2 -60 -13 -77
-19 -29 -24 -26 122 -81 l71 -28 36 22 c40 25 76 66 76 87 0 19 -97 82 -145
95 -63 15 -118 42 -140 66 l-20 22 -29 -24z"/>
<path d="M5335 1707 c4 -23 8 -80 10 -127 l2 -84 52 -48 c46 -42 56 -47 84
-41 65 12 74 19 81 65 3 24 9 58 12 76 6 31 2 38 -57 93 -82 77 -95 86 -147
98 l-44 9 7 -41z"/>
<path d="M9663 1690 c-18 -11 -33 -22 -33 -25 0 -3 18 -42 41 -86 l40 -81 28
26 c25 24 35 27 87 24 l59 -3 0 -97 c0 -92 -1 -98 -31 -135 -16 -21 -34 -44
-38 -51 -11 -18 53 -42 114 -42 l50 0 0 170 0 170 -29 0 c-16 0 -31 6 -34 14
-3 8 -20 17 -37 21 -17 4 -63 31 -102 61 -39 30 -74 54 -77 54 -3 0 -21 -9
-38 -20z"/>
<path d="M9210 1646 c-75 -25 -140 -62 -140 -80 0 -23 33 -111 48 -128 8 -10
72 -46 143 -82 l128 -65 61 66 c58 62 61 68 55 102 -11 63 -15 70 -73 114
-127 96 -140 100 -222 73z"/>
<path d="M965 1610 c-48 -49 -48 -49 -37 -88 7 -22 12 -76 12 -121 l0 -81 39
0 c36 0 41 4 87 71 27 39 64 94 82 122 l32 52 -22 17 c-30 23 -125 78 -136 78
-4 0 -30 -22 -57 -50z"/>
<path d="M5837 1615 c-20 -14 -37 -31 -38 -38 -3 -40 3 -106 13 -129 9 -24 16
-28 48 -28 52 0 84 28 84 72 0 33 -48 148 -62 148 -4 0 -24 -11 -45 -25z"/>
<path d="M160 1549 c0 -6 -13 -28 -29 -48 l-30 -37 19 -67 c19 -74 42 -107 73
-107 29 0 93 70 108 118 12 43 12 43 -27 83 -54 56 -114 86 -114 58z"/>
<path d="M7723 1509 c-36 -10 -78 -59 -89 -103 -7 -30 -7 -29 50 17 53 43 62
47 112 47 l54 0 0 -64 c0 -34 -5 -77 -11 -94 -9 -26 -6 -37 15 -79 38 -71 82
-116 166 -167 98 -61 144 -63 189 -9 42 51 48 100 19 148 -13 21 -36 50 -52
64 -17 14 -50 45 -75 69 -30 28 -48 39 -55 32 -5 -5 -36 -10 -68 -10 l-58 0 0
45 c0 35 -4 47 -17 51 -10 3 -46 18 -81 35 -34 16 -63 29 -65 28 -1 0 -16 -5
-34 -10z"/>
<path d="M2002 1465 c-21 -15 -71 -103 -86 -150 -7 -22 28 -49 84 -65 28 -8
28 -8 39 53 6 34 15 77 20 95 8 27 6 36 -12 58 -21 23 -23 24 -45 9z"/>
<path d="M1417 1433 c-4 -3 -24 -9 -44 -12 -29 -5 -38 -12 -43 -31 -3 -14 -16
-29 -28 -35 -16 -7 -22 -18 -22 -42 0 -31 -2 -33 -34 -33 -26 0 -42 -8 -65
-32 -17 -18 -31 -41 -31 -52 0 -10 18 -36 40 -58 45 -46 48 -46 150 13 61 36
78 40 157 46 89 6 158 30 169 58 15 37 -63 95 -129 95 -29 0 -37 5 -47 30 -7
16 -23 36 -36 45 -26 17 -28 17 -37 8z"/>
<path d="M6163 1354 c-12 -9 -39 -36 -59 -60 l-36 -45 17 -44 c35 -92 121
-131 190 -85 17 11 40 20 53 20 12 0 22 5 22 11 0 6 10 24 21 41 21 28 21 32
6 63 -20 42 -70 80 -125 95 -24 6 -49 13 -55 15 -7 2 -22 -3 -34 -11z"/>
<path d="M3664 1287 c-17 -5 -44 -19 -59 -31 l-27 -22 15 -51 c32 -106 48
-124 133 -143 65 -15 90 -7 103 31 21 61 15 76 -61 153 -70 70 -74 72 -104 63z"/>
<path d="M8745 1256 c-2 -6 -5 -20 -7 -31 -2 -12 -19 -27 -41 -38 -38 -18 -97
-88 -97 -116 0 -36 39 -80 79 -91 22 -6 53 -21 68 -33 15 -12 47 -35 70 -51
41 -27 44 -28 104 -17 35 6 67 15 72 20 7 7 6 55 -2 140 l-13 129 -47 33 c-25
19 -51 37 -57 41 -22 15 -126 26 -129 14z"/>
<path d="M5766 1164 c-29 -7 -62 -25 -79 -43 -30 -29 -30 -30 -16 -68 12 -30
32 -50 102 -97 84 -56 88 -58 118 -46 17 8 39 27 49 43 17 28 17 30 -4 66 -33
57 -100 150 -111 154 -5 2 -32 -2 -59 -9z"/>
<path d="M4250 1124 c-8 -3 -21 -7 -27 -9 -20 -7 22 -69 60 -90 45 -24 89 -9
147 50 l44 45 -30 0 c-17 0 -64 2 -105 5 -41 3 -81 2 -89 -1z"/>
<path d="M4857 1062 c-25 -37 -55 -92 -67 -121 l-21 -54 20 -48 c12 -26 21
-54 21 -63 0 -42 148 -146 180 -126 8 6 41 10 72 10 47 0 62 -5 88 -26 32 -28
62 -79 74 -126 6 -25 11 -28 46 -28 38 0 40 -2 72 -62 29 -55 41 -67 103 -102
72 -41 122 -49 150 -26 17 14 20 56 6 65 -5 3 -17 28 -26 55 -19 56 -37 70
-90 70 -19 0 -52 7 -73 16 -20 9 -57 19 -82 22 l-45 7 -3 53 c-3 58 28 201 53
239 27 40 -6 123 -49 123 -33 0 -94 27 -107 48 -8 13 -21 16 -60 13 -108 -7
-169 26 -169 94 0 30 -3 35 -24 35 -19 0 -35 -15 -69 -68z"/>
<path d="M612 1100 c-58 -36 -72 -72 -72 -188 0 -96 2 -105 25 -127 22 -23 32
-25 109 -25 l84 0 21 33 c16 27 20 53 23 156 l3 124 -60 23 c-74 29 -92 29
-133 4z"/>
<path d="M2295 1087 c-70 -28 -70 -27 -56 -105 7 -39 18 -75 24 -80 31 -24 54
-22 93 9 37 29 39 34 35 77 -4 64 -25 112 -48 111 -10 0 -31 -6 -48 -12z"/>
<path d="M9503 1063 c-42 -22 -53 -34 -81 -93 -18 -37 -32 -72 -32 -77 0 -15
-73 -79 -105 -92 -16 -7 -43 -22 -59 -35 l-28 -23 20 -44 c11 -24 33 -59 49
-78 l29 -34 39 25 c22 14 55 43 73 63 l33 38 -21 22 c-15 16 -20 35 -20 73 l0
52 58 0 c40 0 66 -6 87 -20 38 -25 50 -25 85 0 37 26 70 99 70 155 l0 45 -39
0 c-24 0 -51 9 -74 24 l-35 24 -49 -25z"/>
<path d="M0 949 c0 -150 -13 -137 104 -105 67 18 86 31 86 58 0 21 -110 133
-159 161 l-31 18 0 -132z"/>
<path d="M1700 1043 c-40 -13 -61 -29 -89 -68 -27 -38 -29 -46 -20 -79 6 -20
16 -36 24 -36 11 0 15 -14 15 -55 0 -50 -2 -56 -30 -70 l-29 -15 20 -46 c62
-147 133 -173 244 -89 17 12 44 29 62 38 43 23 81 76 62 88 -10 6 -14 35 -15
114 -2 126 -8 135 -117 190 -67 33 -94 39 -127 28z"/>
<path d="M7555 1038 c-11 -6 -22 -12 -24 -14 -4 -3 49 -71 92 -118 15 -17 27
-34 27 -38 0 -4 16 -26 36 -48 31 -34 42 -40 78 -40 35 0 44 4 57 28 9 15 19
41 22 58 6 30 2 33 -91 97 -127 87 -157 98 -197 75z"/>
<path d="M3283 990 c-69 -32 -74 -44 -50 -103 21 -49 115 -147 141 -147 28 0
54 28 71 76 19 55 3 110 -48 162 -22 23 -44 42 -47 41 -3 0 -33 -13 -67 -29z"/>
<path d="M6733 967 c-17 -5 -46 -25 -64 -43 -32 -33 -33 -36 -37 -143 -5 -127
-1 -135 91 -170 93 -34 107 -36 107 -13 0 11 11 44 24 74 19 42 25 76 27 141
3 98 -1 107 -70 141 -37 18 -52 21 -78 13z"/>
<path d="M6323 895 c-44 -19 -88 -87 -74 -113 12 -23 50 -38 113 -46 42 -5 49
-3 67 21 38 47 21 107 -39 138 -34 18 -27 18 -67 0z"/>
<path d="M1139 889 c-8 -5 -25 -9 -39 -9 -19 0 -39 -15 -73 -56 -41 -49 -47
-62 -47 -101 0 -50 28 -106 61 -124 38 -20 86 7 114 62 l25 49 54 0 54 0 7
-51 7 -51 28 27 c27 26 28 29 15 59 -8 17 -21 52 -31 78 -13 37 -27 54 -63 77
-61 40 -94 51 -112 40z"/>
<path d="M7133 854 c-17 -26 -17 -28 21 -99 45 -85 77 -108 161 -115 l60 -5 9
-42 9 -42 91 -3 c50 -2 108 -1 128 1 33 3 36 5 28 22 -15 28 -136 102 -210
128 -67 24 -100 46 -100 66 0 18 -62 73 -100 88 -72 30 -78 30 -97 1z"/>
<path d="M4065 850 c-42 -16 -45 -30 -21 -119 29 -110 42 -119 116 -85 64 30
100 60 100 85 0 27 -55 85 -104 108 -46 23 -60 24 -91 11z"/>
<path d="M3679 790 c-1 -27 -2 -54 -3 -59 -1 -6 19 -30 42 -55 70 -73 130 -57
133 35 3 64 -16 88 -73 95 -26 4 -53 13 -59 20 -24 29 -39 16 -40 -36z"/>
<path d="M8307 800 c-42 -10 -91 -24 -109 -31 -57 -23 -86 -134 -43 -169 24
-20 149 -50 210 -50 33 0 74 -4 91 -9 71 -20 164 46 164 117 0 35 -4 39 -73
83 -86 56 -131 79 -149 78 -7 -1 -48 -9 -91 -19z"/>
<path d="M2358 644 c-25 -13 -28 -20 -28 -70 0 -98 28 -114 107 -61 30 20 33
27 33 73 0 27 -5 55 -12 62 -16 16 -67 14 -100 -4z"/>
<path d="M146 609 c5 -13 9 -62 9 -109 l0 -85 44 -44 44 -44 61 7 c56 5 65 10
103 50 41 43 42 44 30 82 -15 49 -97 130 -146 144 -20 6 -62 14 -95 17 -58 6
-58 6 -50 -18z"/>
<path d="M9767 602 c-26 -29 -97 -126 -97 -133 0 -3 14 -27 31 -52 l31 -47 82
0 c62 0 90 -5 119 -20 20 -11 39 -20 42 -20 3 0 5 32 5 70 l0 70 -30 0 c-26 0
-30 4 -30 28 0 57 -10 72 -46 72 -18 0 -37 6 -41 14 -4 7 -18 18 -29 24 -17 9
-25 8 -37 -6z"/>
<path d="M4534 579 c-32 -17 -63 -35 -68 -40 -6 -5 -21 -9 -35 -9 -13 0 -44
-12 -68 -26 -24 -14 -62 -28 -85 -32 -26 -5 -46 -15 -56 -30 -14 -21 -12 -25
36 -71 60 -57 79 -65 136 -57 60 9 97 36 144 104 36 54 102 173 102 187 0 15
-54 1 -106 -26z"/>
<path d="M8995 571 c-49 -22 -100 -90 -90 -120 6 -20 151 -167 180 -184 19
-10 35 -1 35 21 0 9 14 44 30 76 17 32 30 64 30 70 0 13 -128 156 -138 155 -4
0 -25 -8 -47 -18z"/>
<path d="M5956 486 c-41 -84 -40 -100 16 -153 l33 -32 50 33 c61 41 80 63 89
98 6 24 1 31 -51 66 -106 71 -96 72 -137 -12z"/>
<path d="M6960 507 c-30 -5 -56 -11 -58 -13 -5 -3 30 -117 39 -127 10 -12 79
26 113 62 l30 31 -21 28 c-24 32 -30 33 -103 19z"/>
<path d="M7837 424 c-33 -22 -48 -25 -110 -24 -73 2 -161 -21 -214 -55 -12 -8
-33 -15 -47 -15 -21 0 -15 -9 52 -79 l77 -78 30 21 c17 11 41 33 53 48 22 26
29 28 96 28 86 0 108 -15 145 -95 12 -28 27 -58 32 -67 5 -10 9 -38 9 -63 l0
-45 190 0 c211 0 204 -3 179 67 -10 30 -12 31 -85 35 -86 4 -94 11 -94 77 0
75 -60 141 -180 201 -25 12 -56 33 -70 46 l-26 24 -37 -26z"/>
<path d="M6369 378 c-13 -18 -27 -36 -32 -39 -15 -10 4 -81 44 -165 28 -58 39
-94 39 -128 l0 -46 92 0 c72 0 89 3 80 12 -7 7 -12 38 -12 71 0 46 5 65 24 90
l25 32 -52 61 c-74 87 -144 144 -176 144 -5 0 -20 -15 -32 -32z"/>
<path d="M709 345 c-15 -8 -29 -24 -32 -36 -6 -24 24 -93 47 -106 8 -4 21 -25
30 -47 15 -36 18 -38 49 -32 17 3 39 15 47 26 13 16 34 20 145 26 l130 7 -64
58 c-64 57 -136 89 -203 89 -14 0 -45 7 -68 15 -51 18 -48 18 -81 0z"/>
<path d="M8624 328 c-71 -48 -97 -92 -89 -148 3 -25 9 -75 12 -112 5 -57 9
-68 24 -68 16 0 19 8 19 45 l0 45 59 0 c57 0 59 1 64 29 4 16 25 48 48 70 l43
41 -60 62 c-32 35 -62 64 -65 66 -3 1 -28 -12 -55 -30z"/>
<path d="M2034 326 c-15 -12 -17 -17 -6 -27 6 -7 12 -27 12 -45 0 -33 70 -134
94 -134 6 0 26 19 44 42 l32 42 -72 68 c-40 37 -76 67 -79 68 -3 0 -14 -6 -25
-14z"/>
<path d="M3793 277 l-20 -54 26 -31 c80 -98 81 -99 81 -146 l0 -46 40 0 c42 0
55 18 20 27 -17 5 -20 14 -20 59 0 51 1 54 43 83 72 49 75 57 38 94 -34 36
-108 67 -157 67 -29 0 -33 -5 -51 -53z"/>
<path d="M2524 299 c-3 -5 -27 -9 -55 -9 -27 0 -49 -4 -49 -10 0 -5 5 -10 10
-10 6 0 10 -6 10 -14 0 -8 25 -36 55 -61 34 -29 55 -56 55 -69 1 -17 12 -9 60
42 32 35 57 69 54 75 -10 27 -128 74 -140 56z"/>
<path d="M1612 233 c-11 -16 -27 -45 -35 -65 -13 -30 -21 -38 -41 -38 -21 0
-31 -10 -51 -49 -13 -27 -29 -52 -35 -56 -32 -20 6 -25 190 -25 l200 0 0 29
c0 17 -4 33 -10 36 -5 3 -10 23 -10 44 0 43 -24 70 -106 120 -63 38 -77 39
-102 4z"/>
<path d="M9404 230 c-42 -16 -102 -118 -119 -197 l-7 -33 157 0 158 0 -7 31
c-3 17 -6 49 -6 70 0 29 -5 39 -20 44 -11 3 -43 26 -72 51 -28 24 -54 44 -57
43 -3 0 -16 -4 -27 -9z"/>
</g>
</svg>
